<svg width="15" height="10" fill="none" xmlns="http://www.w3.org/2000/svg"><path d="M12.951 4.318c.792-.066 1.33-.426 1.536-.914-.286.175-1.172.367-1.662.184a6.075 6.075 0 00-.077-.323c-.373-1.37-1.65-2.473-2.989-2.34.108-.043.218-.084.328-.12.147-.054 1.011-.194.875-.5-.114-.268-1.17.204-1.37.265.263-.099.697-.268.744-.57a2.096 2.096 0 00-1.102.522.758.758 0 00.211-.419C8.373.788 7.746 2.17 7.24 3.51c-.398-.386-.751-.69-1.068-.858-.888-.477-1.95-.974-3.616-1.592-.052.551.272 1.284 1.206 1.772-.203-.027-.572.033-.868.104.12.632.514 1.153 1.579 1.404-.487.032-.739.143-.966.382.221.44.762.956 1.735.85-1.082.466-.441 1.33.44 1.201-1.502 1.551-3.87 1.437-5.23.14 3.55 4.837 11.266 2.86 12.416-1.798.861.007 1.368-.299 1.682-.636-.497.084-1.216-.003-1.598-.161z" fill="#A07B50"/></svg>