<svg xmlns="http://www.w3.org/2000/svg" xmlns:xlink="http://www.w3.org/1999/xlink"><symbol id="icon-consulting-mobile"><mask id="a" fill="#fff"><path d="M32.411 31.209c-5.297 0-9.606 4.305-9.606 9.596 0 4.837 3.591 7.725 9.606 7.725s9.606-2.888 9.606-7.725c0-5.291-4.309-9.596-9.606-9.596zm0 14.98c-2.712 0-7.263-.7-7.263-5.384 0-4.001 3.258-7.256 7.263-7.256s7.263 3.255 7.263 7.256c0 4.684-4.55 5.384-7.263 5.384zm-4.686-24.343c-2.394 0-3.983 2.959-3.983 4.916a3.986 3.986 0 003.983 3.979 3.986 3.986 0 003.983-3.98c0-1.956-1.588-4.915-3.983-4.915zm0 6.554c-.904 0-1.64-.735-1.64-1.639 0-1.107.935-2.575 1.64-2.575.705 0 1.64 1.468 1.64 2.575a1.64 1.64 0 01-1.64 1.639zm9.372-6.554c-2.395 0-3.983 2.959-3.983 4.916a3.986 3.986 0 003.983 3.979 3.986 3.986 0 003.983-3.98c0-1.956-1.588-4.915-3.983-4.915zm0 6.554c-.904 0-1.64-.735-1.64-1.639 0-1.107.935-2.575 1.64-2.575.705 0 1.64 1.468 1.64 2.575 0 .904-.736 1.639-1.64 1.639zm7.497-.936c-2.394 0-3.983 2.958-3.983 4.915a3.986 3.986 0 003.983 3.98 3.985 3.985 0 003.984-3.98c0-1.957-1.589-4.915-3.984-4.915zm0 6.553c-.904 0-1.64-.735-1.64-1.638 0-1.107.935-2.575 1.64-2.575.706 0 1.64 1.468 1.64 2.575a1.64 1.64 0 01-1.64 1.638zm-24.366-6.553c-2.395 0-3.984 2.958-3.984 4.915a3.986 3.986 0 003.984 3.98 3.985 3.985 0 003.983-3.98c0-1.957-1.589-4.915-3.983-4.915zm0 6.553a1.64 1.64 0 01-1.64-1.638c0-1.107.934-2.575 1.64-2.575.705 0 1.64 1.468 1.64 2.575 0 .903-.736 1.638-1.64 1.638z"/><path d="M34.91 38.699h-1.327v-1.327a1.17 1.17 0 00-2.343 0V38.7h-1.328a1.17 1.17 0 100 2.34h1.328v1.327a1.17 1.17 0 002.343 0V41.04h1.327a1.17 1.17 0 100-2.34z"/><path d="M46.502 1.715A35.638 35.638 0 0035.535 0C26.043 0 17.12 3.693 10.408 10.398S0 26.018 0 35.5c0 9.482 3.696 18.397 10.408 25.102C17.12 67.307 26.043 71 35.535 71a1.17 1.17 0 100-2.34c-8.866 0-17.201-3.45-23.47-9.713-6.27-6.263-9.722-14.59-9.722-23.447s3.453-17.184 9.722-23.447C18.334 5.79 26.669 2.34 35.535 2.34c3.508 0 6.955.538 10.247 1.601a1.183 1.183 0 001.475-.753 1.181 1.181 0 00-.755-1.474z"/><path d="M79.71 32.084l-4.114-4.697a1.184 1.184 0 00-1.653-.11l-3.277 2.864a35.492 35.492 0 00-10.004-19.744 35.635 35.635 0 00-8.626-6.357 1.183 1.183 0 00-1.582.492 1.181 1.181 0 00.492 1.58 33.303 33.303 0 018.06 5.94c5.596 5.592 8.914 12.692 9.593 20.532.08.935 1.23 1.4 1.938.78l4.067-3.555 2.571 2.936-9.115 7.968a1.973 1.973 0 01-2.571 0l-9.116-7.968 2.572-2.936 3.739 3.268c.79.69 2.057.023 1.934-1.018C62.886 17.341 50.381 6.242 35.535 6.242 19.386 6.242 6.248 19.367 6.248 35.5s13.138 29.258 29.287 29.258a1.17 1.17 0 100-2.34c-14.857 0-26.944-12.076-26.944-26.918 0-14.843 12.087-26.918 26.944-26.918 12.555 0 23.289 8.628 26.18 20.538l-2.109-1.843a1.184 1.184 0 00-1.653.11l-4.114 4.698a1.17 1.17 0 00.11 1.651l9.997 8.738c1.6 1.398 4.058 1.398 5.657 0l9.997-8.738a1.17 1.17 0 00.11-1.651z"/><path d="M54.904 66.787h-8.696c3.873-2.88 9.867-8.236 9.867-13.81 0-4.087-3.328-7.412-7.42-7.412-4.09 0-7.419 3.325-7.419 7.412a1.17 1.17 0 002.343 0 5.08 5.08 0 015.077-5.072 5.08 5.08 0 015.076 5.072c0 6.739-11.808 13.905-11.927 13.976-.46.276-.676.847-.514 1.358.153.48.612.816 1.117.816h12.495a1.17 1.17 0 100-2.34zm18.743-4.994H71.07V46.735c0-.48-.304-.922-.753-1.093a1.183 1.183 0 00-1.347.38L56.474 62.25c-.581.755-.023 1.884.929 1.884h11.324v3.823a1.17 1.17 0 002.343 0v-3.823h2.577a1.17 1.17 0 100-2.34zm-4.92 0h-8.945l8.945-11.617v11.617z"/></mask><path d="M32.411 31.209c-5.297 0-9.606 4.305-9.606 9.596 0 4.837 3.591 7.725 9.606 7.725s9.606-2.888 9.606-7.725c0-5.291-4.309-9.596-9.606-9.596zm0 14.98c-2.712 0-7.263-.7-7.263-5.384 0-4.001 3.258-7.256 7.263-7.256s7.263 3.255 7.263 7.256c0 4.684-4.55 5.384-7.263 5.384zm-4.686-24.343c-2.394 0-3.983 2.959-3.983 4.916a3.986 3.986 0 003.983 3.979 3.986 3.986 0 003.983-3.98c0-1.956-1.588-4.915-3.983-4.915zm0 6.554c-.904 0-1.64-.735-1.64-1.639 0-1.107.935-2.575 1.64-2.575.705 0 1.64 1.468 1.64 2.575a1.64 1.64 0 01-1.64 1.639zm9.372-6.554c-2.395 0-3.983 2.959-3.983 4.916a3.986 3.986 0 003.983 3.979 3.986 3.986 0 003.983-3.98c0-1.956-1.588-4.915-3.983-4.915zm0 6.554c-.904 0-1.64-.735-1.64-1.639 0-1.107.935-2.575 1.64-2.575.705 0 1.64 1.468 1.64 2.575 0 .904-.736 1.639-1.64 1.639zm7.497-.936c-2.394 0-3.983 2.958-3.983 4.915a3.986 3.986 0 003.983 3.98 3.985 3.985 0 003.984-3.98c0-1.957-1.589-4.915-3.984-4.915zm0 6.553c-.904 0-1.64-.735-1.64-1.638 0-1.107.935-2.575 1.64-2.575.706 0 1.64 1.468 1.64 2.575a1.64 1.64 0 01-1.64 1.638zm-24.366-6.553c-2.395 0-3.984 2.958-3.984 4.915a3.986 3.986 0 003.984 3.98 3.985 3.985 0 003.983-3.98c0-1.957-1.589-4.915-3.983-4.915zm0 6.553a1.64 1.64 0 01-1.64-1.638c0-1.107.934-2.575 1.64-2.575.705 0 1.64 1.468 1.64 2.575 0 .903-.736 1.638-1.64 1.638z" fill="#A07B50"/><path d="M34.91 38.699h-1.327v-1.327a1.17 1.17 0 00-2.343 0V38.7h-1.328a1.17 1.17 0 100 2.34h1.328v1.327a1.17 1.17 0 002.343 0V41.04h1.327a1.17 1.17 0 100-2.34z" fill="#A07B50"/><path d="M46.502 1.715A35.638 35.638 0 0035.535 0C26.043 0 17.12 3.693 10.408 10.398S0 26.018 0 35.5c0 9.482 3.696 18.397 10.408 25.102C17.12 67.307 26.043 71 35.535 71a1.17 1.17 0 100-2.34c-8.866 0-17.201-3.45-23.47-9.713-6.27-6.263-9.722-14.59-9.722-23.447s3.453-17.184 9.722-23.447C18.334 5.79 26.669 2.34 35.535 2.34c3.508 0 6.955.538 10.247 1.601a1.183 1.183 0 001.475-.753 1.181 1.181 0 00-.755-1.474z" fill="#A07B50"/><path d="M79.71 32.084l-4.114-4.697a1.184 1.184 0 00-1.653-.11l-3.277 2.864a35.492 35.492 0 00-10.004-19.744 35.635 35.635 0 00-8.626-6.357 1.183 1.183 0 00-1.582.492 1.181 1.181 0 00.492 1.58 33.303 33.303 0 018.06 5.94c5.596 5.592 8.914 12.692 9.593 20.532.08.935 1.23 1.4 1.938.78l4.067-3.555 2.571 2.936-9.115 7.968a1.973 1.973 0 01-2.571 0l-9.116-7.968 2.572-2.936 3.739 3.268c.79.69 2.057.023 1.934-1.018C62.886 17.341 50.381 6.242 35.535 6.242 19.386 6.242 6.248 19.367 6.248 35.5s13.138 29.258 29.287 29.258a1.17 1.17 0 100-2.34c-14.857 0-26.944-12.076-26.944-26.918 0-14.843 12.087-26.918 26.944-26.918 12.555 0 23.289 8.628 26.18 20.538l-2.109-1.843a1.184 1.184 0 00-1.653.11l-4.114 4.698a1.17 1.17 0 00.11 1.651l9.997 8.738c1.6 1.398 4.058 1.398 5.657 0l9.997-8.738a1.17 1.17 0 00.11-1.651z" fill="#A07B50"/><path d="M54.904 66.787h-8.696c3.873-2.88 9.867-8.236 9.867-13.81 0-4.087-3.328-7.412-7.42-7.412-4.09 0-7.419 3.325-7.419 7.412a1.17 1.17 0 002.343 0 5.08 5.08 0 015.077-5.072 5.08 5.08 0 015.076 5.072c0 6.739-11.808 13.905-11.927 13.976-.46.276-.676.847-.514 1.358.153.48.612.816 1.117.816h12.495a1.17 1.17 0 100-2.34zm18.743-4.994H71.07V46.735c0-.48-.304-.922-.753-1.093a1.183 1.183 0 00-1.347.38L56.474 62.25c-.581.755-.023 1.884.929 1.884h11.324v3.823a1.17 1.17 0 002.343 0v-3.823h2.577a1.17 1.17 0 100-2.34zm-4.92 0h-8.945l8.945-11.617v11.617z" fill="#A07B50"/><path d="M32.411 31.209c-5.297 0-9.606 4.305-9.606 9.596 0 4.837 3.591 7.725 9.606 7.725s9.606-2.888 9.606-7.725c0-5.291-4.309-9.596-9.606-9.596zm0 14.98c-2.712 0-7.263-.7-7.263-5.384 0-4.001 3.258-7.256 7.263-7.256s7.263 3.255 7.263 7.256c0 4.684-4.55 5.384-7.263 5.384zm-4.686-24.343c-2.394 0-3.983 2.959-3.983 4.916a3.986 3.986 0 003.983 3.979 3.986 3.986 0 003.983-3.98c0-1.956-1.588-4.915-3.983-4.915zm0 6.554c-.904 0-1.64-.735-1.64-1.639 0-1.107.935-2.575 1.64-2.575.705 0 1.64 1.468 1.64 2.575a1.64 1.64 0 01-1.64 1.639zm9.372-6.554c-2.395 0-3.983 2.959-3.983 4.916a3.986 3.986 0 003.983 3.979 3.986 3.986 0 003.983-3.98c0-1.956-1.588-4.915-3.983-4.915zm0 6.554c-.904 0-1.64-.735-1.64-1.639 0-1.107.935-2.575 1.64-2.575.705 0 1.64 1.468 1.64 2.575 0 .904-.736 1.639-1.64 1.639zm7.497-.936c-2.394 0-3.983 2.958-3.983 4.915a3.986 3.986 0 003.983 3.98 3.985 3.985 0 003.984-3.98c0-1.957-1.589-4.915-3.984-4.915zm0 6.553c-.904 0-1.64-.735-1.64-1.638 0-1.107.935-2.575 1.64-2.575.706 0 1.64 1.468 1.64 2.575a1.64 1.64 0 01-1.64 1.638zm-24.366-6.553c-2.395 0-3.984 2.958-3.984 4.915a3.986 3.986 0 003.984 3.98 3.985 3.985 0 003.983-3.98c0-1.957-1.589-4.915-3.983-4.915zm0 6.553a1.64 1.64 0 01-1.64-1.638c0-1.107.934-2.575 1.64-2.575.705 0 1.64 1.468 1.64 2.575 0 .903-.736 1.638-1.64 1.638z" mask="url(#a)"/><path d="M34.91 38.699h-1.327v-1.327a1.17 1.17 0 00-2.343 0V38.7h-1.328a1.17 1.17 0 100 2.34h1.328v1.327a1.17 1.17 0 002.343 0V41.04h1.327a1.17 1.17 0 100-2.34z" mask="url(#a)"/><path d="M46.502 1.715A35.638 35.638 0 0035.535 0C26.043 0 17.12 3.693 10.408 10.398S0 26.018 0 35.5c0 9.482 3.696 18.397 10.408 25.102C17.12 67.307 26.043 71 35.535 71a1.17 1.17 0 100-2.34c-8.866 0-17.201-3.45-23.47-9.713-6.27-6.263-9.722-14.59-9.722-23.447s3.453-17.184 9.722-23.447C18.334 5.79 26.669 2.34 35.535 2.34c3.508 0 6.955.538 10.247 1.601a1.183 1.183 0 001.475-.753 1.181 1.181 0 00-.755-1.474z" mask="url(#a)"/><path d="M79.71 32.084l-4.114-4.697a1.184 1.184 0 00-1.653-.11l-3.277 2.864a35.492 35.492 0 00-10.004-19.744 35.635 35.635 0 00-8.626-6.357 1.183 1.183 0 00-1.582.492 1.181 1.181 0 00.492 1.58 33.303 33.303 0 018.06 5.94c5.596 5.592 8.914 12.692 9.593 20.532.08.935 1.23 1.4 1.938.78l4.067-3.555 2.571 2.936-9.115 7.968a1.973 1.973 0 01-2.571 0l-9.116-7.968 2.572-2.936 3.739 3.268c.79.69 2.057.023 1.934-1.018C62.886 17.341 50.381 6.242 35.535 6.242 19.386 6.242 6.248 19.367 6.248 35.5s13.138 29.258 29.287 29.258a1.17 1.17 0 100-2.34c-14.857 0-26.944-12.076-26.944-26.918 0-14.843 12.087-26.918 26.944-26.918 12.555 0 23.289 8.628 26.18 20.538l-2.109-1.843a1.184 1.184 0 00-1.653.11l-4.114 4.698a1.17 1.17 0 00.11 1.651l9.997 8.738c1.6 1.398 4.058 1.398 5.657 0l9.997-8.738a1.17 1.17 0 00.11-1.651z" mask="url(#a)"/><path d="M54.904 66.787h-8.696c3.873-2.88 9.867-8.236 9.867-13.81 0-4.087-3.328-7.412-7.42-7.412-4.09 0-7.419 3.325-7.419 7.412a1.17 1.17 0 002.343 0 5.08 5.08 0 015.077-5.072 5.08 5.08 0 015.076 5.072c0 6.739-11.808 13.905-11.927 13.976-.46.276-.676.847-.514 1.358.153.48.612.816 1.117.816h12.495a1.17 1.17 0 100-2.34zm18.743-4.994H71.07V46.735c0-.48-.304-.922-.753-1.093a1.183 1.183 0 00-1.347.38L56.474 62.25c-.581.755-.023 1.884.929 1.884h11.324v3.823a1.17 1.17 0 002.343 0v-3.823h2.577a1.17 1.17 0 100-2.34zm-4.92 0h-8.945l8.945-11.617v11.617z" mask="url(#a)"/></symbol><symbol id="icon-consulting"><mask id="a" fill="#fff"><path d="M43.35 42.755c-7.085 0-12.849 5.764-12.849 12.848 0 6.475 4.804 10.342 12.849 10.342s12.848-3.866 12.848-10.342c0-7.084-5.764-12.848-12.848-12.848zm0 20.055c-3.628 0-9.715-.936-9.715-7.207 0-5.357 4.358-9.715 9.715-9.715 5.356 0 9.715 4.358 9.715 9.715 0 6.271-6.087 7.207-9.715 7.207zm-6.268-32.59c-3.202 0-5.327 3.96-5.327 6.58a5.333 5.333 0 005.327 5.328 5.333 5.333 0 005.328-5.327c0-2.62-2.125-6.581-5.328-6.581zm0 8.774A2.196 2.196 0 0134.89 36.8c0-1.482 1.25-3.447 2.193-3.447.944 0 2.194 1.965 2.194 3.447 0 1.21-.984 2.194-2.194 2.194zm12.535-8.774c-3.202 0-5.327 3.96-5.327 6.58a5.333 5.333 0 005.327 5.328 5.333 5.333 0 005.328-5.327c0-2.62-2.125-6.581-5.328-6.581zm0 8.774a2.196 2.196 0 01-2.193-2.194c0-1.482 1.25-3.447 2.193-3.447.943 0 2.194 1.965 2.194 3.447 0 1.21-.984 2.194-2.194 2.194zm10.028-1.254c-3.203 0-5.327 3.962-5.327 6.582a5.333 5.333 0 005.327 5.327 5.333 5.333 0 005.327-5.327c0-2.62-2.124-6.581-5.327-6.581zm0 8.775a2.196 2.196 0 01-2.194-2.194c0-1.482 1.251-3.447 2.194-3.447.943 0 2.194 1.965 2.194 3.447 0 1.21-.984 2.194-2.194 2.194zM27.054 37.74c-3.202 0-5.327 3.962-5.327 6.582a5.333 5.333 0 005.327 5.327 5.333 5.333 0 005.328-5.327c0-2.62-2.125-6.581-5.328-6.581zm0 8.775a2.196 2.196 0 01-2.193-2.194c0-1.482 1.25-3.447 2.193-3.447.944 0 2.194 1.965 2.194 3.447 0 1.21-.984 2.194-2.194 2.194z"/><path d="M46.693 52.783h-1.776v-1.776a1.567 1.567 0 10-3.134 0v1.776h-1.776a1.567 1.567 0 100 3.133h1.776v1.776a1.567 1.567 0 103.134 0v-1.776h1.776a1.567 1.567 0 100-3.133z"/><path d="M62.197 3.268A47.623 47.623 0 0047.528.972c-12.695 0-24.63 4.944-33.608 13.92C4.944 23.87 0 35.806 0 48.5c0 12.695 4.944 24.63 13.92 33.608 8.978 8.977 20.913 13.92 33.608 13.92a1.567 1.567 0 100-3.133c-11.858 0-23.006-4.618-31.391-13.003C7.752 71.507 3.134 60.358 3.134 48.5s4.618-23.006 13.003-31.392C24.522 8.723 35.67 4.106 47.528 4.106c4.692 0 9.302.721 13.705 2.144a1.581 1.581 0 001.973-1.009 1.582 1.582 0 00-1.01-1.973z"/><path d="M106.612 43.927l-5.502-6.289a1.583 1.583 0 00-2.211-.147l-4.383 3.834a47.533 47.533 0 00-13.38-26.433 47.661 47.661 0 00-11.538-8.51 1.581 1.581 0 00-2.115.657 1.582 1.582 0 00.657 2.116 44.546 44.546 0 0110.78 7.953c7.486 7.486 11.923 16.992 12.83 27.488.108 1.252 1.645 1.874 2.593 1.044l5.439-4.76 3.439 3.931L91.03 55.48c-.972.85-2.467.85-3.439 0L75.4 44.81l3.439-3.93 5 4.375c1.057.925 2.752.03 2.588-1.362C84.108 24.188 67.385 9.328 47.528 9.328c-21.6 0-39.171 17.573-39.171 39.172 0 21.6 17.572 39.171 39.171 39.171a1.567 1.567 0 100-3.133C27.657 84.538 11.49 68.37 11.49 48.5c0-19.872 16.167-36.038 36.038-36.038 16.792 0 31.149 11.551 35.016 27.497l-2.82-2.468a1.583 1.583 0 00-2.211.147l-5.503 6.29a1.567 1.567 0 00.147 2.21l13.371 11.7c2.139 1.87 5.428 1.87 7.566 0l13.371-11.7c.651-.57.717-1.56.147-2.21z"/><path d="M73.433 90.387h-11.63C66.983 86.532 75 79.362 75 71.898c0-5.471-4.452-9.923-9.924-9.923-5.472 0-9.923 4.452-9.923 9.923a1.567 1.567 0 103.133 0 6.797 6.797 0 016.79-6.79 6.797 6.797 0 016.79 6.79c0 9.023-15.794 18.617-15.953 18.712a1.582 1.582 0 00-.687 1.818 1.582 1.582 0 001.493 1.093h16.713a1.567 1.567 0 000-3.134zm25.07-6.685h-3.447v-20.16c0-.642-.407-1.234-1.006-1.464a1.582 1.582 0 00-1.802.508L75.534 84.313c-.777 1.011-.031 2.522 1.242 2.522h15.147v5.119a1.567 1.567 0 103.133 0v-5.118h3.447a1.566 1.566 0 100-3.134zm-6.58 0H79.957L91.923 68.15v15.553z"/></mask><path d="M43.35 42.755c-7.085 0-12.849 5.764-12.849 12.848 0 6.475 4.804 10.342 12.849 10.342s12.848-3.866 12.848-10.342c0-7.084-5.764-12.848-12.848-12.848zm0 20.055c-3.628 0-9.715-.936-9.715-7.207 0-5.357 4.358-9.715 9.715-9.715 5.356 0 9.715 4.358 9.715 9.715 0 6.271-6.087 7.207-9.715 7.207zm-6.268-32.59c-3.202 0-5.327 3.96-5.327 6.58a5.333 5.333 0 005.327 5.328 5.333 5.333 0 005.328-5.327c0-2.62-2.125-6.581-5.328-6.581zm0 8.774A2.196 2.196 0 0134.89 36.8c0-1.482 1.25-3.447 2.193-3.447.944 0 2.194 1.965 2.194 3.447 0 1.21-.984 2.194-2.194 2.194zm12.535-8.774c-3.202 0-5.327 3.96-5.327 6.58a5.333 5.333 0 005.327 5.328 5.333 5.333 0 005.328-5.327c0-2.62-2.125-6.581-5.328-6.581zm0 8.774a2.196 2.196 0 01-2.193-2.194c0-1.482 1.25-3.447 2.193-3.447.943 0 2.194 1.965 2.194 3.447 0 1.21-.984 2.194-2.194 2.194zm10.028-1.254c-3.203 0-5.327 3.962-5.327 6.582a5.333 5.333 0 005.327 5.327 5.333 5.333 0 005.327-5.327c0-2.62-2.124-6.581-5.327-6.581zm0 8.775a2.196 2.196 0 01-2.194-2.194c0-1.482 1.251-3.447 2.194-3.447.943 0 2.194 1.965 2.194 3.447 0 1.21-.984 2.194-2.194 2.194zM27.054 37.74c-3.202 0-5.327 3.962-5.327 6.582a5.333 5.333 0 005.327 5.327 5.333 5.333 0 005.328-5.327c0-2.62-2.125-6.581-5.328-6.581zm0 8.775a2.196 2.196 0 01-2.193-2.194c0-1.482 1.25-3.447 2.193-3.447.944 0 2.194 1.965 2.194 3.447 0 1.21-.984 2.194-2.194 2.194z" fill="#A07B50"/><path d="M46.693 52.783h-1.776v-1.776a1.567 1.567 0 10-3.134 0v1.776h-1.776a1.567 1.567 0 100 3.133h1.776v1.776a1.567 1.567 0 103.134 0v-1.776h1.776a1.567 1.567 0 100-3.133z" fill="#A07B50"/><path d="M62.197 3.268A47.623 47.623 0 0047.528.972c-12.695 0-24.63 4.944-33.608 13.92C4.944 23.87 0 35.806 0 48.5c0 12.695 4.944 24.63 13.92 33.608 8.978 8.977 20.913 13.92 33.608 13.92a1.567 1.567 0 100-3.133c-11.858 0-23.006-4.618-31.391-13.003C7.752 71.507 3.134 60.358 3.134 48.5s4.618-23.006 13.003-31.392C24.522 8.723 35.67 4.106 47.528 4.106c4.692 0 9.302.721 13.705 2.144a1.581 1.581 0 001.973-1.009 1.582 1.582 0 00-1.01-1.973z" fill="#A07B50"/><path d="M106.612 43.927l-5.502-6.289a1.583 1.583 0 00-2.211-.147l-4.383 3.834a47.533 47.533 0 00-13.38-26.433 47.661 47.661 0 00-11.538-8.51 1.581 1.581 0 00-2.115.657 1.582 1.582 0 00.657 2.116 44.546 44.546 0 0110.78 7.953c7.486 7.486 11.923 16.992 12.83 27.488.108 1.252 1.645 1.874 2.593 1.044l5.439-4.76 3.439 3.931L91.03 55.48c-.972.85-2.467.85-3.439 0L75.4 44.81l3.439-3.93 5 4.375c1.057.925 2.752.03 2.588-1.362C84.108 24.188 67.385 9.328 47.528 9.328c-21.6 0-39.171 17.573-39.171 39.172 0 21.6 17.572 39.171 39.171 39.171a1.567 1.567 0 100-3.133C27.657 84.538 11.49 68.37 11.49 48.5c0-19.872 16.167-36.038 36.038-36.038 16.792 0 31.149 11.551 35.016 27.497l-2.82-2.468a1.583 1.583 0 00-2.211.147l-5.503 6.29a1.567 1.567 0 00.147 2.21l13.371 11.7c2.139 1.87 5.428 1.87 7.566 0l13.371-11.7c.651-.57.717-1.56.147-2.21z" fill="#A07B50"/><path d="M73.433 90.387h-11.63C66.983 86.532 75 79.362 75 71.898c0-5.471-4.452-9.923-9.924-9.923-5.472 0-9.923 4.452-9.923 9.923a1.567 1.567 0 103.133 0 6.797 6.797 0 016.79-6.79 6.797 6.797 0 016.79 6.79c0 9.023-15.794 18.617-15.953 18.712a1.582 1.582 0 00-.687 1.818 1.582 1.582 0 001.493 1.093h16.713a1.567 1.567 0 000-3.134zm25.07-6.685h-3.447v-20.16c0-.642-.407-1.234-1.006-1.464a1.582 1.582 0 00-1.802.508L75.534 84.313c-.777 1.011-.031 2.522 1.242 2.522h15.147v5.119a1.567 1.567 0 103.133 0v-5.118h3.447a1.566 1.566 0 100-3.134zm-6.58 0H79.957L91.923 68.15v15.553z" fill="#A07B50"/><path d="M43.35 42.755c-7.085 0-12.849 5.764-12.849 12.848 0 6.475 4.804 10.342 12.849 10.342s12.848-3.866 12.848-10.342c0-7.084-5.764-12.848-12.848-12.848zm0 20.055c-3.628 0-9.715-.936-9.715-7.207 0-5.357 4.358-9.715 9.715-9.715 5.356 0 9.715 4.358 9.715 9.715 0 6.271-6.087 7.207-9.715 7.207zm-6.268-32.59c-3.202 0-5.327 3.96-5.327 6.58a5.333 5.333 0 005.327 5.328 5.333 5.333 0 005.328-5.327c0-2.62-2.125-6.581-5.328-6.581zm0 8.774A2.196 2.196 0 0134.89 36.8c0-1.482 1.25-3.447 2.193-3.447.944 0 2.194 1.965 2.194 3.447 0 1.21-.984 2.194-2.194 2.194zm12.535-8.774c-3.202 0-5.327 3.96-5.327 6.58a5.333 5.333 0 005.327 5.328 5.333 5.333 0 005.328-5.327c0-2.62-2.125-6.581-5.328-6.581zm0 8.774a2.196 2.196 0 01-2.193-2.194c0-1.482 1.25-3.447 2.193-3.447.943 0 2.194 1.965 2.194 3.447 0 1.21-.984 2.194-2.194 2.194zm10.028-1.254c-3.203 0-5.327 3.962-5.327 6.582a5.333 5.333 0 005.327 5.327 5.333 5.333 0 005.327-5.327c0-2.62-2.124-6.581-5.327-6.581zm0 8.775a2.196 2.196 0 01-2.194-2.194c0-1.482 1.251-3.447 2.194-3.447.943 0 2.194 1.965 2.194 3.447 0 1.21-.984 2.194-2.194 2.194zM27.054 37.74c-3.202 0-5.327 3.962-5.327 6.582a5.333 5.333 0 005.327 5.327 5.333 5.333 0 005.328-5.327c0-2.62-2.125-6.581-5.328-6.581zm0 8.775a2.196 2.196 0 01-2.193-2.194c0-1.482 1.25-3.447 2.193-3.447.944 0 2.194 1.965 2.194 3.447 0 1.21-.984 2.194-2.194 2.194z" mask="url(#a)"/><path d="M46.693 52.783h-1.776v-1.776a1.567 1.567 0 10-3.134 0v1.776h-1.776a1.567 1.567 0 100 3.133h1.776v1.776a1.567 1.567 0 103.134 0v-1.776h1.776a1.567 1.567 0 100-3.133z" mask="url(#a)"/><path d="M62.197 3.268A47.623 47.623 0 0047.528.972c-12.695 0-24.63 4.944-33.608 13.92C4.944 23.87 0 35.806 0 48.5c0 12.695 4.944 24.63 13.92 33.608 8.978 8.977 20.913 13.92 33.608 13.92a1.567 1.567 0 100-3.133c-11.858 0-23.006-4.618-31.391-13.003C7.752 71.507 3.134 60.358 3.134 48.5s4.618-23.006 13.003-31.392C24.522 8.723 35.67 4.106 47.528 4.106c4.692 0 9.302.721 13.705 2.144a1.581 1.581 0 001.973-1.009 1.582 1.582 0 00-1.01-1.973z" mask="url(#a)"/><path d="M106.612 43.927l-5.502-6.289a1.583 1.583 0 00-2.211-.147l-4.383 3.834a47.533 47.533 0 00-13.38-26.433 47.661 47.661 0 00-11.538-8.51 1.581 1.581 0 00-2.115.657 1.582 1.582 0 00.657 2.116 44.546 44.546 0 0110.78 7.953c7.486 7.486 11.923 16.992 12.83 27.488.108 1.252 1.645 1.874 2.593 1.044l5.439-4.76 3.439 3.931L91.03 55.48c-.972.85-2.467.85-3.439 0L75.4 44.81l3.439-3.93 5 4.375c1.057.925 2.752.03 2.588-1.362C84.108 24.188 67.385 9.328 47.528 9.328c-21.6 0-39.171 17.573-39.171 39.172 0 21.6 17.572 39.171 39.171 39.171a1.567 1.567 0 100-3.133C27.657 84.538 11.49 68.37 11.49 48.5c0-19.872 16.167-36.038 36.038-36.038 16.792 0 31.149 11.551 35.016 27.497l-2.82-2.468a1.583 1.583 0 00-2.211.147l-5.503 6.29a1.567 1.567 0 00.147 2.21l13.371 11.7c2.139 1.87 5.428 1.87 7.566 0l13.371-11.7c.651-.57.717-1.56.147-2.21z" mask="url(#a)"/><path d="M73.433 90.387h-11.63C66.983 86.532 75 79.362 75 71.898c0-5.471-4.452-9.923-9.924-9.923-5.472 0-9.923 4.452-9.923 9.923a1.567 1.567 0 103.133 0 6.797 6.797 0 016.79-6.79 6.797 6.797 0 016.79 6.79c0 9.023-15.794 18.617-15.953 18.712a1.582 1.582 0 00-.687 1.818 1.582 1.582 0 001.493 1.093h16.713a1.567 1.567 0 000-3.134zm25.07-6.685h-3.447v-20.16c0-.642-.407-1.234-1.006-1.464a1.582 1.582 0 00-1.802.508L75.534 84.313c-.777 1.011-.031 2.522 1.242 2.522h15.147v5.119a1.567 1.567 0 103.133 0v-5.118h3.447a1.566 1.566 0 100-3.134zm-6.58 0H79.957L91.923 68.15v15.553z" mask="url(#a)"/></symbol><symbol id="icon-facebook-footer"><path d="M1.462 2.807v1.996H0v2.44h1.462v7.252h3.003V7.243h2.016s.189-1.17.28-2.45H4.477V3.126c0-.25.327-.585.65-.585h1.637V0H4.54C1.388 0 1.462 2.443 1.462 2.807z"/></symbol><symbol id="icon-facebook"><path d="M1.099 2.729v1.5H0v1.834h1.099v5.451h2.258v-5.45h1.515s.142-.88.21-1.842H3.365V2.968c0-.188.246-.44.49-.44h1.23V.618H3.412C1.043.618 1.1 2.454 1.1 2.728z"/></symbol><symbol id="icon-food-mobile"><mask id="a" fill="#fff"><path d="M56.89 26.944l-5.335-12.15V1.293c0-.943-1.013-1.578-1.847-1.155l-4.874 2.466L39.96.137a1.262 1.262 0 00-1.141 0l-4.874 2.466L29.07.137a1.262 1.262 0 00-1.142 0l-4.874 2.466L18.181.137a1.261 1.261 0 00-1.141 0l-4.874 2.466L7.292.137C6.457-.286 5.445.35 5.445 1.292v13.502L.11 26.944c-.072.164-.11.345-.11.524v59.24C0 87.422.571 88 1.276 88h54.448c.705 0 1.276-.578 1.276-1.292v-59.24c0-.18-.037-.359-.11-.524zM7.997 3.38l3.598 1.821c.36.182.782.182 1.141 0l4.874-2.466 4.874 2.466c.36.182.783.182 1.142 0L28.5 2.736l4.874 2.466c.36.182.782.182 1.141 0l4.874-2.466 4.874 2.466c.36.182.783.182 1.142 0l3.598-1.82v10.395H7.997V3.381zM2.552 65.957h28.223l5.21 4.22-5.21 4.218H2.552v-8.438zM35.306 28.76h8.252v56.657H2.552v-8.439h28.67c.29 0 .571-.1.798-.282l6.805-5.511c.629-.51.629-1.508 0-2.017l-6.805-5.511a1.268 1.268 0 00-.798-.283H2.552V28.759h26.799c.704 0 1.276-.578 1.276-1.291 0-.714-.572-1.292-1.276-1.292H3.24l4.31-9.816h40.766l-4.31 9.816h-8.7c-.705 0-1.276.578-1.276 1.292 0 .713.571 1.291 1.276 1.291zm19.142 56.657H46.11V27.742l4.169-9.493 4.169 9.493v57.675z"/><path d="M23.055 41.33c-5.77 0-10.464 4.752-10.464 10.592 0 5.337 3.912 8.524 10.464 8.524 6.553 0 10.464-3.187 10.464-8.524 0-5.84-4.694-10.591-10.464-10.591zm0 16.533c-2.955 0-7.912-.772-7.912-5.941 0-4.416 3.55-8.008 7.912-8.008 4.363 0 7.912 3.592 7.912 8.008 0 5.17-4.957 5.941-7.912 5.941zM17.95 30.998c-2.608 0-4.338 3.265-4.338 5.425 0 2.421 1.946 4.391 4.339 4.391 2.392 0 4.338-1.97 4.338-4.391 0-2.16-1.73-5.425-4.338-5.425zm0 7.233a1.8 1.8 0 01-1.786-1.808c0-1.222 1.019-2.842 1.787-2.842s1.786 1.62 1.786 2.842a1.8 1.8 0 01-1.786 1.808zm10.21-7.233c-2.609 0-4.34 3.265-4.34 5.425 0 2.421 1.947 4.391 4.34 4.391 2.392 0 4.338-1.97 4.338-4.391 0-2.16-1.73-5.425-4.338-5.425zm0 7.233a1.8 1.8 0 01-1.787-1.808c0-1.222 1.019-2.842 1.787-2.842s1.786 1.62 1.786 2.842a1.8 1.8 0 01-1.787 1.808zm8.167-1.033c-2.608 0-4.34 3.265-4.34 5.424 0 2.422 1.947 4.392 4.34 4.392 2.392 0 4.339-1.97 4.339-4.392 0-2.16-1.731-5.424-4.34-5.424zm0 7.233a1.8 1.8 0 01-1.787-1.809c0-1.221 1.019-2.841 1.787-2.841s1.786 1.62 1.786 2.841a1.8 1.8 0 01-1.786 1.809zM9.783 37.198c-2.608 0-4.338 3.265-4.338 5.424 0 2.422 1.946 4.392 4.338 4.392 2.393 0 4.34-1.97 4.34-4.392 0-2.16-1.731-5.424-4.34-5.424zm0 7.233a1.8 1.8 0 01-1.786-1.809c0-1.221 1.018-2.841 1.786-2.841.769 0 1.787 1.62 1.787 2.841a1.8 1.8 0 01-1.787 1.809zm2.383 35.475H6.72c-.705 0-1.276.578-1.276 1.292 0 .713.571 1.291 1.276 1.291h5.445c.704 0 1.276-.578 1.276-1.291 0-.714-.572-1.292-1.276-1.292zm17.695 0h-12.25c-.705 0-1.277.578-1.277 1.292 0 .713.572 1.291 1.276 1.291h12.251c.705 0 1.276-.578 1.276-1.291 0-.714-.571-1.292-1.276-1.292zM16.25 68.885H6.72c-.704 0-1.275.578-1.275 1.291 0 .714.571 1.292 1.276 1.292h9.528c.705 0 1.276-.578 1.276-1.292 0-.713-.57-1.291-1.276-1.291zm12.25 0h-6.806c-.705 0-1.276.578-1.276 1.291 0 .714.571 1.292 1.276 1.292H28.5c.705 0 1.276-.578 1.276-1.292 0-.713-.571-1.291-1.276-1.291z"/></mask><path d="M56.89 26.944l-5.335-12.15V1.293c0-.943-1.013-1.578-1.847-1.155l-4.874 2.466L39.96.137a1.262 1.262 0 00-1.141 0l-4.874 2.466L29.07.137a1.262 1.262 0 00-1.142 0l-4.874 2.466L18.181.137a1.261 1.261 0 00-1.141 0l-4.874 2.466L7.292.137C6.457-.286 5.445.35 5.445 1.292v13.502L.11 26.944c-.072.164-.11.345-.11.524v59.24C0 87.422.571 88 1.276 88h54.448c.705 0 1.276-.578 1.276-1.292v-59.24c0-.18-.037-.359-.11-.524zM7.997 3.38l3.598 1.821c.36.182.782.182 1.141 0l4.874-2.466 4.874 2.466c.36.182.783.182 1.142 0L28.5 2.736l4.874 2.466c.36.182.782.182 1.141 0l4.874-2.466 4.874 2.466c.36.182.783.182 1.142 0l3.598-1.82v10.395H7.997V3.381zM2.552 65.957h28.223l5.21 4.22-5.21 4.218H2.552v-8.438zM35.306 28.76h8.252v56.657H2.552v-8.439h28.67c.29 0 .571-.1.798-.282l6.805-5.511c.629-.51.629-1.508 0-2.017l-6.805-5.511a1.268 1.268 0 00-.798-.283H2.552V28.759h26.799c.704 0 1.276-.578 1.276-1.291 0-.714-.572-1.292-1.276-1.292H3.24l4.31-9.816h40.766l-4.31 9.816h-8.7c-.705 0-1.276.578-1.276 1.292 0 .713.571 1.291 1.276 1.291zm19.142 56.657H46.11V27.742l4.169-9.493 4.169 9.493v57.675z" fill="#A07B50"/><path d="M23.055 41.33c-5.77 0-10.464 4.752-10.464 10.592 0 5.337 3.912 8.524 10.464 8.524 6.553 0 10.464-3.187 10.464-8.524 0-5.84-4.694-10.591-10.464-10.591zm0 16.533c-2.955 0-7.912-.772-7.912-5.941 0-4.416 3.55-8.008 7.912-8.008 4.363 0 7.912 3.592 7.912 8.008 0 5.17-4.957 5.941-7.912 5.941zM17.95 30.998c-2.608 0-4.338 3.265-4.338 5.425 0 2.421 1.946 4.391 4.339 4.391 2.392 0 4.338-1.97 4.338-4.391 0-2.16-1.73-5.425-4.338-5.425zm0 7.233a1.8 1.8 0 01-1.786-1.808c0-1.222 1.019-2.842 1.787-2.842s1.786 1.62 1.786 2.842a1.8 1.8 0 01-1.786 1.808zm10.21-7.233c-2.609 0-4.34 3.265-4.34 5.425 0 2.421 1.947 4.391 4.34 4.391 2.392 0 4.338-1.97 4.338-4.391 0-2.16-1.73-5.425-4.338-5.425zm0 7.233a1.8 1.8 0 01-1.787-1.808c0-1.222 1.019-2.842 1.787-2.842s1.786 1.62 1.786 2.842a1.8 1.8 0 01-1.787 1.808zm8.167-1.033c-2.608 0-4.34 3.265-4.34 5.424 0 2.422 1.947 4.392 4.34 4.392 2.392 0 4.339-1.97 4.339-4.392 0-2.16-1.731-5.424-4.34-5.424zm0 7.233a1.8 1.8 0 01-1.787-1.809c0-1.221 1.019-2.841 1.787-2.841s1.786 1.62 1.786 2.841a1.8 1.8 0 01-1.786 1.809zM9.783 37.198c-2.608 0-4.338 3.265-4.338 5.424 0 2.422 1.946 4.392 4.338 4.392 2.393 0 4.34-1.97 4.34-4.392 0-2.16-1.731-5.424-4.34-5.424zm0 7.233a1.8 1.8 0 01-1.786-1.809c0-1.221 1.018-2.841 1.786-2.841.769 0 1.787 1.62 1.787 2.841a1.8 1.8 0 01-1.787 1.809zm2.383 35.475H6.72c-.705 0-1.276.578-1.276 1.292 0 .713.571 1.291 1.276 1.291h5.445c.704 0 1.276-.578 1.276-1.291 0-.714-.572-1.292-1.276-1.292zm17.695 0h-12.25c-.705 0-1.277.578-1.277 1.292 0 .713.572 1.291 1.276 1.291h12.251c.705 0 1.276-.578 1.276-1.291 0-.714-.571-1.292-1.276-1.292zM16.25 68.885H6.72c-.704 0-1.275.578-1.275 1.291 0 .714.571 1.292 1.276 1.292h9.528c.705 0 1.276-.578 1.276-1.292 0-.713-.57-1.291-1.276-1.291zm12.25 0h-6.806c-.705 0-1.276.578-1.276 1.291 0 .714.571 1.292 1.276 1.292H28.5c.705 0 1.276-.578 1.276-1.292 0-.713-.571-1.291-1.276-1.291z" fill="#A07B50"/><path d="M56.89 26.944l-5.335-12.15V1.293c0-.943-1.013-1.578-1.847-1.155l-4.874 2.466L39.96.137a1.262 1.262 0 00-1.141 0l-4.874 2.466L29.07.137a1.262 1.262 0 00-1.142 0l-4.874 2.466L18.181.137a1.261 1.261 0 00-1.141 0l-4.874 2.466L7.292.137C6.457-.286 5.445.35 5.445 1.292v13.502L.11 26.944c-.072.164-.11.345-.11.524v59.24C0 87.422.571 88 1.276 88h54.448c.705 0 1.276-.578 1.276-1.292v-59.24c0-.18-.037-.359-.11-.524zM7.997 3.38l3.598 1.821c.36.182.782.182 1.141 0l4.874-2.466 4.874 2.466c.36.182.783.182 1.142 0L28.5 2.736l4.874 2.466c.36.182.782.182 1.141 0l4.874-2.466 4.874 2.466c.36.182.783.182 1.142 0l3.598-1.82v10.395H7.997V3.381zM2.552 65.957h28.223l5.21 4.22-5.21 4.218H2.552v-8.438zM35.306 28.76h8.252v56.657H2.552v-8.439h28.67c.29 0 .571-.1.798-.282l6.805-5.511c.629-.51.629-1.508 0-2.017l-6.805-5.511a1.268 1.268 0 00-.798-.283H2.552V28.759h26.799c.704 0 1.276-.578 1.276-1.291 0-.714-.572-1.292-1.276-1.292H3.24l4.31-9.816h40.766l-4.31 9.816h-8.7c-.705 0-1.276.578-1.276 1.292 0 .713.571 1.291 1.276 1.291zm19.142 56.657H46.11V27.742l4.169-9.493 4.169 9.493v57.675z" mask="url(#a)"/><path d="M23.055 41.33c-5.77 0-10.464 4.752-10.464 10.592 0 5.337 3.912 8.524 10.464 8.524 6.553 0 10.464-3.187 10.464-8.524 0-5.84-4.694-10.591-10.464-10.591zm0 16.533c-2.955 0-7.912-.772-7.912-5.941 0-4.416 3.55-8.008 7.912-8.008 4.363 0 7.912 3.592 7.912 8.008 0 5.17-4.957 5.941-7.912 5.941zM17.95 30.998c-2.608 0-4.338 3.265-4.338 5.425 0 2.421 1.946 4.391 4.339 4.391 2.392 0 4.338-1.97 4.338-4.391 0-2.16-1.73-5.425-4.338-5.425zm0 7.233a1.8 1.8 0 01-1.786-1.808c0-1.222 1.019-2.842 1.787-2.842s1.786 1.62 1.786 2.842a1.8 1.8 0 01-1.786 1.808zm10.21-7.233c-2.609 0-4.34 3.265-4.34 5.425 0 2.421 1.947 4.391 4.34 4.391 2.392 0 4.338-1.97 4.338-4.391 0-2.16-1.73-5.425-4.338-5.425zm0 7.233a1.8 1.8 0 01-1.787-1.808c0-1.222 1.019-2.842 1.787-2.842s1.786 1.62 1.786 2.842a1.8 1.8 0 01-1.787 1.808zm8.167-1.033c-2.608 0-4.34 3.265-4.34 5.424 0 2.422 1.947 4.392 4.34 4.392 2.392 0 4.339-1.97 4.339-4.392 0-2.16-1.731-5.424-4.34-5.424zm0 7.233a1.8 1.8 0 01-1.787-1.809c0-1.221 1.019-2.841 1.787-2.841s1.786 1.62 1.786 2.841a1.8 1.8 0 01-1.786 1.809zM9.783 37.198c-2.608 0-4.338 3.265-4.338 5.424 0 2.422 1.946 4.392 4.338 4.392 2.393 0 4.34-1.97 4.34-4.392 0-2.16-1.731-5.424-4.34-5.424zm0 7.233a1.8 1.8 0 01-1.786-1.809c0-1.221 1.018-2.841 1.786-2.841.769 0 1.787 1.62 1.787 2.841a1.8 1.8 0 01-1.787 1.809zm2.383 35.475H6.72c-.705 0-1.276.578-1.276 1.292 0 .713.571 1.291 1.276 1.291h5.445c.704 0 1.276-.578 1.276-1.291 0-.714-.572-1.292-1.276-1.292zm17.695 0h-12.25c-.705 0-1.277.578-1.277 1.292 0 .713.572 1.291 1.276 1.291h12.251c.705 0 1.276-.578 1.276-1.291 0-.714-.571-1.292-1.276-1.292zM16.25 68.885H6.72c-.704 0-1.275.578-1.275 1.291 0 .714.571 1.292 1.276 1.292h9.528c.705 0 1.276-.578 1.276-1.292 0-.713-.57-1.291-1.276-1.291zm12.25 0h-6.806c-.705 0-1.276.578-1.276 1.291 0 .714.571 1.292 1.276 1.292H28.5c.705 0 1.276-.578 1.276-1.292 0-.713-.571-1.291-1.276-1.291z" mask="url(#a)"/></symbol><symbol id="icon-food"><mask id="a" fill="#fff"><path d="M70.438 33.067l-6.565-14.91V1.585C63.873.43 62.627-.35 61.6.168l-5.998 3.027L49.604.168a1.556 1.556 0 00-1.405 0L42.2 3.195 36.203.168a1.556 1.556 0 00-1.405 0l-5.999 3.027L22.801.168a1.556 1.556 0 00-1.404 0l-5.999 3.027L9.4.168C8.374-.351 7.127.429 7.127 1.585v16.572L.562 33.067a1.602 1.602 0 00-.135.644v72.704c0 .875.703 1.585 1.57 1.585h67.006c.868 0 1.57-.71 1.57-1.585V33.711c0-.222-.045-.44-.135-.644zM10.268 4.15l4.428 2.235c.442.223.963.223 1.405 0l5.998-3.027 5.998 3.027c.442.223.963.223 1.405 0L35.5 3.358l5.998 3.027c.442.223.963.223 1.405 0l5.998-3.027 5.998 3.027c.442.223.963.223 1.405 0l4.428-2.235v12.758H10.268V4.15zm-6.7 76.797H38.3l6.412 5.178-6.413 5.178H3.569V80.947zm40.308-45.651H54.03v69.534H3.568V94.474H38.85c.357 0 .703-.123.981-.348l8.376-6.763c.774-.625.774-1.85 0-2.475l-8.376-6.764a1.563 1.563 0 00-.98-.347H3.567V35.296h32.979c.867 0 1.57-.71 1.57-1.585 0-.876-.703-1.586-1.57-1.586H4.414l5.305-12.047h50.167l-5.304 12.047H43.876c-.868 0-1.57.71-1.57 1.586 0 .875.702 1.585 1.57 1.585zm23.557 69.534h-10.26V34.047l5.13-11.65 5.13 11.65v70.783z"/><path d="M28.8 50.724c-7.101 0-12.878 5.831-12.878 12.998 0 6.55 4.814 10.462 12.877 10.462 8.064 0 12.878-3.911 12.878-10.462 0-7.167-5.777-12.998-12.878-12.998zm0 20.29c-3.637 0-9.737-.948-9.737-7.292 0-5.42 4.368-9.828 9.736-9.828 5.37 0 9.737 4.409 9.737 9.828 0 6.345-6.1 7.292-9.737 7.292zm-6.282-32.971c-3.21 0-5.34 4.007-5.34 6.658 0 2.972 2.395 5.39 5.34 5.39 2.944 0 5.34-2.418 5.34-5.39 0-2.65-2.13-6.658-5.34-6.658zm0 8.877a2.211 2.211 0 01-2.2-2.22c0-1.498 1.254-3.487 2.2-3.487.945 0 2.198 1.988 2.198 3.488 0 1.223-.986 2.219-2.198 2.219zm12.563-8.877c-3.21 0-5.34 4.007-5.34 6.658 0 2.972 2.396 5.39 5.34 5.39s5.34-2.418 5.34-5.39c0-2.65-2.13-6.658-5.34-6.658zm0 8.877a2.211 2.211 0 01-2.199-2.22c0-1.498 1.254-3.487 2.2-3.487.944 0 2.198 1.988 2.198 3.488a2.212 2.212 0 01-2.199 2.219zm10.051-1.268c-3.21 0-5.34 4.007-5.34 6.657 0 2.972 2.396 5.39 5.34 5.39s5.34-2.418 5.34-5.39c0-2.65-2.13-6.657-5.34-6.657zm0 8.877a2.212 2.212 0 01-2.199-2.22c0-1.5 1.254-3.487 2.199-3.487.945 0 2.199 1.988 2.199 3.487 0 1.224-.987 2.22-2.199 2.22zm-32.665-8.877c-3.21 0-5.34 4.007-5.34 6.657 0 2.972 2.395 5.39 5.34 5.39 2.944 0 5.34-2.418 5.34-5.39 0-2.65-2.13-6.657-5.34-6.657zm0 8.877a2.212 2.212 0 01-2.199-2.22c0-1.5 1.253-3.487 2.199-3.487.945 0 2.198 1.988 2.198 3.487 0 1.224-.986 2.22-2.198 2.22zm2.931 43.538h-6.7c-.868 0-1.57.71-1.57 1.585s.702 1.585 1.57 1.585h6.7c.868 0 1.57-.71 1.57-1.585 0-.876-.702-1.585-1.57-1.585zm21.777 0H22.1c-.867 0-1.57.71-1.57 1.585s.703 1.585 1.57 1.585h15.076c.868 0 1.57-.71 1.57-1.585 0-.876-.702-1.585-1.57-1.585zM20.424 84.54H8.698c-.868 0-1.57.71-1.57 1.585 0 .876.702 1.586 1.57 1.586h11.726c.867 0 1.57-.71 1.57-1.585 0-.876-.703-1.586-1.57-1.586zm15.076 0h-8.376c-.867 0-1.57.71-1.57 1.585 0 .876.703 1.586 1.57 1.586H35.5c.867 0 1.57-.71 1.57-1.585 0-.876-.702-1.586-1.57-1.586z"/></mask><path d="M70.438 33.067l-6.565-14.91V1.585C63.873.43 62.627-.35 61.6.168l-5.998 3.027L49.604.168a1.556 1.556 0 00-1.405 0L42.2 3.195 36.203.168a1.556 1.556 0 00-1.405 0l-5.999 3.027L22.801.168a1.556 1.556 0 00-1.404 0l-5.999 3.027L9.4.168C8.374-.351 7.127.429 7.127 1.585v16.572L.562 33.067a1.602 1.602 0 00-.135.644v72.704c0 .875.703 1.585 1.57 1.585h67.006c.868 0 1.57-.71 1.57-1.585V33.711c0-.222-.045-.44-.135-.644zM10.268 4.15l4.428 2.235c.442.223.963.223 1.405 0l5.998-3.027 5.998 3.027c.442.223.963.223 1.405 0L35.5 3.358l5.998 3.027c.442.223.963.223 1.405 0l5.998-3.027 5.998 3.027c.442.223.963.223 1.405 0l4.428-2.235v12.758H10.268V4.15zm-6.7 76.797H38.3l6.412 5.178-6.413 5.178H3.569V80.947zm40.308-45.651H54.03v69.534H3.568V94.474H38.85c.357 0 .703-.123.981-.348l8.376-6.763c.774-.625.774-1.85 0-2.475l-8.376-6.764a1.563 1.563 0 00-.98-.347H3.567V35.296h32.979c.867 0 1.57-.71 1.57-1.585 0-.876-.703-1.586-1.57-1.586H4.414l5.305-12.047h50.167l-5.304 12.047H43.876c-.868 0-1.57.71-1.57 1.586 0 .875.702 1.585 1.57 1.585zm23.557 69.534h-10.26V34.047l5.13-11.65 5.13 11.65v70.783z" fill="#A07B50"/><path d="M28.8 50.724c-7.101 0-12.878 5.831-12.878 12.998 0 6.55 4.814 10.462 12.877 10.462 8.064 0 12.878-3.911 12.878-10.462 0-7.167-5.777-12.998-12.878-12.998zm0 20.29c-3.637 0-9.737-.948-9.737-7.292 0-5.42 4.368-9.828 9.736-9.828 5.37 0 9.737 4.409 9.737 9.828 0 6.345-6.1 7.292-9.737 7.292zm-6.282-32.971c-3.21 0-5.34 4.007-5.34 6.658 0 2.972 2.395 5.39 5.34 5.39 2.944 0 5.34-2.418 5.34-5.39 0-2.65-2.13-6.658-5.34-6.658zm0 8.877a2.211 2.211 0 01-2.2-2.22c0-1.498 1.254-3.487 2.2-3.487.945 0 2.198 1.988 2.198 3.488 0 1.223-.986 2.219-2.198 2.219zm12.563-8.877c-3.21 0-5.34 4.007-5.34 6.658 0 2.972 2.396 5.39 5.34 5.39s5.34-2.418 5.34-5.39c0-2.65-2.13-6.658-5.34-6.658zm0 8.877a2.211 2.211 0 01-2.199-2.22c0-1.498 1.254-3.487 2.2-3.487.944 0 2.198 1.988 2.198 3.488a2.212 2.212 0 01-2.199 2.219zm10.051-1.268c-3.21 0-5.34 4.007-5.34 6.657 0 2.972 2.396 5.39 5.34 5.39s5.34-2.418 5.34-5.39c0-2.65-2.13-6.657-5.34-6.657zm0 8.877a2.212 2.212 0 01-2.199-2.22c0-1.5 1.254-3.487 2.199-3.487.945 0 2.199 1.988 2.199 3.487 0 1.224-.987 2.22-2.199 2.22zm-32.665-8.877c-3.21 0-5.34 4.007-5.34 6.657 0 2.972 2.395 5.39 5.34 5.39 2.944 0 5.34-2.418 5.34-5.39 0-2.65-2.13-6.657-5.34-6.657zm0 8.877a2.212 2.212 0 01-2.199-2.22c0-1.5 1.253-3.487 2.199-3.487.945 0 2.198 1.988 2.198 3.487 0 1.224-.986 2.22-2.198 2.22zm2.931 43.538h-6.7c-.868 0-1.57.71-1.57 1.585s.702 1.585 1.57 1.585h6.7c.868 0 1.57-.71 1.57-1.585 0-.876-.702-1.585-1.57-1.585zm21.777 0H22.1c-.867 0-1.57.71-1.57 1.585s.703 1.585 1.57 1.585h15.076c.868 0 1.57-.71 1.57-1.585 0-.876-.702-1.585-1.57-1.585zM20.424 84.54H8.698c-.868 0-1.57.71-1.57 1.585 0 .876.702 1.586 1.57 1.586h11.726c.867 0 1.57-.71 1.57-1.585 0-.876-.703-1.586-1.57-1.586zm15.076 0h-8.376c-.867 0-1.57.71-1.57 1.585 0 .876.703 1.586 1.57 1.586H35.5c.867 0 1.57-.71 1.57-1.585 0-.876-.702-1.586-1.57-1.586z" fill="#A07B50"/><path d="M70.438 33.067l-6.565-14.91V1.585C63.873.43 62.627-.35 61.6.168l-5.998 3.027L49.604.168a1.556 1.556 0 00-1.405 0L42.2 3.195 36.203.168a1.556 1.556 0 00-1.405 0l-5.999 3.027L22.801.168a1.556 1.556 0 00-1.404 0l-5.999 3.027L9.4.168C8.374-.351 7.127.429 7.127 1.585v16.572L.562 33.067a1.602 1.602 0 00-.135.644v72.704c0 .875.703 1.585 1.57 1.585h67.006c.868 0 1.57-.71 1.57-1.585V33.711c0-.222-.045-.44-.135-.644zM10.268 4.15l4.428 2.235c.442.223.963.223 1.405 0l5.998-3.027 5.998 3.027c.442.223.963.223 1.405 0L35.5 3.358l5.998 3.027c.442.223.963.223 1.405 0l5.998-3.027 5.998 3.027c.442.223.963.223 1.405 0l4.428-2.235v12.758H10.268V4.15zm-6.7 76.797H38.3l6.412 5.178-6.413 5.178H3.569V80.947zm40.308-45.651H54.03v69.534H3.568V94.474H38.85c.357 0 .703-.123.981-.348l8.376-6.763c.774-.625.774-1.85 0-2.475l-8.376-6.764a1.563 1.563 0 00-.98-.347H3.567V35.296h32.979c.867 0 1.57-.71 1.57-1.585 0-.876-.703-1.586-1.57-1.586H4.414l5.305-12.047h50.167l-5.304 12.047H43.876c-.868 0-1.57.71-1.57 1.586 0 .875.702 1.585 1.57 1.585zm23.557 69.534h-10.26V34.047l5.13-11.65 5.13 11.65v70.783z" mask="url(#a)"/><path d="M28.8 50.724c-7.101 0-12.878 5.831-12.878 12.998 0 6.55 4.814 10.462 12.877 10.462 8.064 0 12.878-3.911 12.878-10.462 0-7.167-5.777-12.998-12.878-12.998zm0 20.29c-3.637 0-9.737-.948-9.737-7.292 0-5.42 4.368-9.828 9.736-9.828 5.37 0 9.737 4.409 9.737 9.828 0 6.345-6.1 7.292-9.737 7.292zm-6.282-32.971c-3.21 0-5.34 4.007-5.34 6.658 0 2.972 2.395 5.39 5.34 5.39 2.944 0 5.34-2.418 5.34-5.39 0-2.65-2.13-6.658-5.34-6.658zm0 8.877a2.211 2.211 0 01-2.2-2.22c0-1.498 1.254-3.487 2.2-3.487.945 0 2.198 1.988 2.198 3.488 0 1.223-.986 2.219-2.198 2.219zm12.563-8.877c-3.21 0-5.34 4.007-5.34 6.658 0 2.972 2.396 5.39 5.34 5.39s5.34-2.418 5.34-5.39c0-2.65-2.13-6.658-5.34-6.658zm0 8.877a2.211 2.211 0 01-2.199-2.22c0-1.498 1.254-3.487 2.2-3.487.944 0 2.198 1.988 2.198 3.488a2.212 2.212 0 01-2.199 2.219zm10.051-1.268c-3.21 0-5.34 4.007-5.34 6.657 0 2.972 2.396 5.39 5.34 5.39s5.34-2.418 5.34-5.39c0-2.65-2.13-6.657-5.34-6.657zm0 8.877a2.212 2.212 0 01-2.199-2.22c0-1.5 1.254-3.487 2.199-3.487.945 0 2.199 1.988 2.199 3.487 0 1.224-.987 2.22-2.199 2.22zm-32.665-8.877c-3.21 0-5.34 4.007-5.34 6.657 0 2.972 2.395 5.39 5.34 5.39 2.944 0 5.34-2.418 5.34-5.39 0-2.65-2.13-6.657-5.34-6.657zm0 8.877a2.212 2.212 0 01-2.199-2.22c0-1.5 1.253-3.487 2.199-3.487.945 0 2.198 1.988 2.198 3.487 0 1.224-.986 2.22-2.198 2.22zm2.931 43.538h-6.7c-.868 0-1.57.71-1.57 1.585s.702 1.585 1.57 1.585h6.7c.868 0 1.57-.71 1.57-1.585 0-.876-.702-1.585-1.57-1.585zm21.777 0H22.1c-.867 0-1.57.71-1.57 1.585s.703 1.585 1.57 1.585h15.076c.868 0 1.57-.71 1.57-1.585 0-.876-.702-1.585-1.57-1.585zM20.424 84.54H8.698c-.868 0-1.57.71-1.57 1.585 0 .876.702 1.586 1.57 1.586h11.726c.867 0 1.57-.71 1.57-1.585 0-.876-.703-1.586-1.57-1.586zm15.076 0h-8.376c-.867 0-1.57.71-1.57 1.585 0 .876.703 1.586 1.57 1.586H35.5c.867 0 1.57-.71 1.57-1.585 0-.876-.702-1.586-1.57-1.586z" mask="url(#a)"/></symbol><symbol id="icon-logo-footer"><path d="M41.84 22H7a.792.792 0 01-.75-.534L1.044 6.299a.791.791 0 01.874-1.037.79.79 0 01.677.47c.644 1.46 2.934 6.173 5.606 6.173.033 0 .067-.001.1-.003 1.612-.071 4.133-1.929 6.989-10.365a.792.792 0 011.5 0c.975 2.877 4.243 10.321 7.636 10.321h.027c1.61-.02 4.083-1.823 6.732-10.303A.792.792 0 0131.941 1h.007c.35.004.656.235.753.57.81 2.784 3.681 10.076 7.203 10.38 2.058.17 4.34-2.155 6.593-6.748a.791.791 0 011.46.603l-5.368 15.66a.792.792 0 01-.75.535zM7.565 20.419h33.709l3.102-9.05c-1.5 1.584-3.022 2.29-4.61 2.157-3.9-.338-6.577-5.951-7.822-9.25-2.198 6.127-4.652 9.13-7.473 9.162l-.046.001c-3.942 0-6.985-6.034-8.364-9.363-2.352 6.198-4.877 9.28-7.69 9.406-1.442.055-2.698-.662-3.78-1.727l2.974 8.664z" stroke="#151313" stroke-width=".8"/></symbol><symbol id="icon-logo-mobile"><path d="M44.447 23H7.383a.841.841 0 01-.797-.56L1.046 6.551a.826.826 0 01.523-1.053.837.837 0 01.407-.033.84.84 0 01.72.492c.685 1.53 3.121 6.467 5.964 6.467l.107-.003c1.714-.075 4.396-2.02 7.434-10.858A.842.842 0 0116.998 1c.362 0 .682.227.799.563 1.037 3.014 4.513 10.812 8.124 10.812h.029c1.711-.02 4.343-1.91 7.161-10.793A.841.841 0 0133.916 1h.008a.84.84 0 01.8.598c.862 2.916 3.917 10.555 7.664 10.874 2.189.178 4.616-2.258 7.013-7.07A.848.848 0 0150.48 5c.41.168.618.62.475 1.034L45.244 22.44a.842.842 0 01-.797.56zM7.984 21.344h35.86l3.3-9.482c-1.594 1.66-3.214 2.4-4.903 2.26-4.15-.354-6.998-6.234-8.322-9.69-2.338 6.418-4.95 9.564-7.95 9.598l-.048.002c-4.194 0-7.432-6.322-8.899-9.81-2.502 6.494-5.188 9.722-8.18 9.854-1.535.058-2.87-.693-4.021-1.809l3.163 9.077z" stroke="#1F1C1D" stroke-width=".8"/></symbol><symbol id="icon-logo"><path d="M48.781 25.284H8.22a.922.922 0 01-.872-.623L1.283 6.975a.923.923 0 011.018-1.209.92.92 0 01.788.548c.75 1.703 3.416 7.198 6.527 7.198l.117-.003c1.877-.084 4.811-2.249 8.136-12.086a.922.922 0 011.746 0c1.136 3.355 4.94 12.035 8.891 12.035h.032c1.873-.024 4.753-2.126 7.838-12.014a.922.922 0 01.88-.647h.009a.921.921 0 01.876.665c.943 3.246 4.286 11.749 8.387 12.104 2.396.197 5.052-2.514 7.675-7.87a.921.921 0 011.7.704l-6.25 18.26a.922.922 0 01-.872.624zM8.877 23.44h39.245l3.612-10.553c-1.746 1.847-3.518 2.671-5.366 2.516-4.542-.395-7.659-6.94-9.108-10.787-2.56 7.145-5.417 10.646-8.7 10.684l-.054.001c-4.59 0-8.133-7.036-9.738-10.917-2.739 7.227-5.678 10.82-8.953 10.967-1.68.065-3.141-.772-4.4-2.013L8.877 23.44z" stroke="#1F1C1D" stroke-width=".8"/></symbol><symbol id="icon-right"><g fill="none"><path d="M.36 16.26l10.56-7.98L.36.3" stroke="#fff" stroke-width=".5"/></g></symbol><symbol id="icon-services-mobile"><mask id="a" fill="#fff"><path d="M10.878 19.288C4.88 19.288 0 24.193 0 30.223c0 5.593 4.199 10.215 9.593 10.857v8.43c0 .714.575 1.292 1.285 1.292s1.285-.578 1.285-1.291V41.08c5.394-.642 9.593-5.264 9.593-10.857 0-6.03-4.88-10.935-10.878-10.935zm0 19.287c-4.581 0-8.308-3.747-8.308-8.352s3.727-8.352 8.308-8.352c4.581 0 8.308 3.747 8.308 8.352s-3.727 8.352-8.308 8.352z"/><path d="M10.878 24.799c-2.976 0-5.396 2.433-5.396 5.424 0 2.991 2.42 5.425 5.396 5.425 2.975 0 5.396-2.434 5.396-5.425 0-2.99-2.42-5.424-5.396-5.424zm0 8.266a2.837 2.837 0 01-2.827-2.842 2.837 2.837 0 012.827-2.841 2.837 2.837 0 012.826 2.841 2.837 2.837 0 01-2.826 2.842zm67.837-2.067h-.771V8.868c0-3.75-3.036-6.801-6.767-6.801h-2.826v-.775A1.289 1.289 0 0067.066 0H63.64c-1.842 0-3.34 1.506-3.34 3.358s1.498 3.358 3.34 3.358h3.426c.71 0 1.285-.578 1.285-1.291V4.65h2.826c2.315 0 4.197 1.892 4.197 4.219v22.129h-.77c-.71 0-1.285.578-1.285 1.291v2.067c0 5.745-4.65 10.419-10.364 10.419H46.509c-5.714 0-10.364-4.674-10.364-10.42V32.29c0-.713-.575-1.291-1.284-1.291h-.771V8.868c0-2.325 1.883-4.218 4.197-4.218h2.826v.775c0 .713.575 1.291 1.285 1.291h3.426c1.842 0 3.34-1.506 3.34-3.358S47.667 0 45.825 0h-3.426c-.71 0-1.285.578-1.285 1.292v.775h-2.826c-3.731 0-6.767 3.051-6.767 6.802v22.129h-.77c-.71 0-1.286.578-1.286 1.292v2.066c0 9.448 7.647 17.135 17.045 17.135h4.883v6.286c0 .713.575 1.291 1.284 1.291h.771v6.975c0 10.683-8.645 19.374-19.272 19.374h-2.74c-10.627 0-19.272-8.691-19.272-19.374V55.768c0-.714-.575-1.292-1.285-1.292s-1.285.578-1.285 1.292v10.275C9.593 78.15 19.391 88 31.435 88h2.74c12.044 0 21.842-9.85 21.842-21.957v-6.975h.771c.71 0 1.285-.578 1.285-1.291V51.49h4.882C72.353 51.491 80 43.804 80 34.356V32.29c0-.714-.576-1.292-1.285-1.292zM65.78 4.133h-2.14a.774.774 0 01-.77-.775c0-.427.345-.775.77-.775h2.141v1.55zm-22.098-1.55h2.141c.425 0 .771.348.771.775a.774.774 0 01-.77.775h-2.142v-1.55zM77.43 34.356c0 8.024-6.493 14.552-14.475 14.552h-6.167c-.71 0-1.285.578-1.285 1.291v6.286h-1.542V50.2c0-.714-.575-1.292-1.285-1.292H46.51c-7.982 0-14.476-6.528-14.476-14.552v-.775h1.542v.775c0 7.17 5.802 13.002 12.934 13.002h16.445c7.132 0 12.934-5.832 12.934-13.002v-.775h1.541v.775z"/><path d="M54.732 20.665c-5.809 0-10.535 4.752-10.535 10.591 0 5.338 3.938 8.525 10.535 8.525 6.597 0 10.535-3.187 10.535-8.525 0-5.84-4.726-10.59-10.535-10.59zm0 16.533c-2.975 0-7.966-.772-7.966-5.942 0-4.415 3.574-8.008 7.966-8.008s7.966 3.593 7.966 8.008c0 5.17-4.991 5.942-7.966 5.942zm-5.139-26.865c-2.626 0-4.368 3.265-4.368 5.424 0 2.422 1.96 4.392 4.368 4.392 2.409 0 4.368-1.97 4.368-4.392 0-2.16-1.742-5.424-4.368-5.424zm0 7.233a1.806 1.806 0 01-1.799-1.809c0-1.221 1.026-2.841 1.799-2.841.773 0 1.799 1.62 1.799 2.841 0 .997-.807 1.809-1.799 1.809zm10.278-7.233c-2.626 0-4.368 3.265-4.368 5.424 0 2.422 1.96 4.392 4.368 4.392 2.409 0 4.369-1.97 4.369-4.392 0-2.16-1.743-5.424-4.369-5.424zm0 7.233a1.806 1.806 0 01-1.799-1.809c0-1.221 1.026-2.841 1.8-2.841.773 0 1.798 1.62 1.798 2.841 0 .997-.807 1.809-1.799 1.809zm8.223-1.034c-2.626 0-4.368 3.265-4.368 5.425 0 2.422 1.96 4.391 4.368 4.391 2.409 0 4.368-1.97 4.368-4.391 0-2.16-1.742-5.425-4.368-5.425zm0 7.233a1.806 1.806 0 01-1.799-1.808c0-1.222 1.026-2.842 1.799-2.842.773 0 1.799 1.62 1.799 2.842 0 .997-.807 1.808-1.8 1.808zM41.37 16.532c-2.626 0-4.368 3.265-4.368 5.425 0 2.422 1.96 4.391 4.368 4.391 2.41 0 4.369-1.97 4.369-4.391 0-2.16-1.743-5.425-4.369-5.425zm0 7.233a1.806 1.806 0 01-1.798-1.808c0-1.222 1.025-2.842 1.798-2.842.774 0 1.8 1.62 1.8 2.842a1.807 1.807 0 01-1.8 1.808z"/></mask><path d="M10.878 19.288C4.88 19.288 0 24.193 0 30.223c0 5.593 4.199 10.215 9.593 10.857v8.43c0 .714.575 1.292 1.285 1.292s1.285-.578 1.285-1.291V41.08c5.394-.642 9.593-5.264 9.593-10.857 0-6.03-4.88-10.935-10.878-10.935zm0 19.287c-4.581 0-8.308-3.747-8.308-8.352s3.727-8.352 8.308-8.352c4.581 0 8.308 3.747 8.308 8.352s-3.727 8.352-8.308 8.352z" fill="#fff"/><path d="M10.878 24.799c-2.976 0-5.396 2.433-5.396 5.424 0 2.991 2.42 5.425 5.396 5.425 2.975 0 5.396-2.434 5.396-5.425 0-2.99-2.42-5.424-5.396-5.424zm0 8.266a2.837 2.837 0 01-2.827-2.842 2.837 2.837 0 012.827-2.841 2.837 2.837 0 012.826 2.841 2.837 2.837 0 01-2.826 2.842zm67.837-2.067h-.771V8.868c0-3.75-3.036-6.801-6.767-6.801h-2.826v-.775A1.289 1.289 0 0067.066 0H63.64c-1.842 0-3.34 1.506-3.34 3.358s1.498 3.358 3.34 3.358h3.426c.71 0 1.285-.578 1.285-1.291V4.65h2.826c2.315 0 4.197 1.892 4.197 4.219v22.129h-.77c-.71 0-1.285.578-1.285 1.291v2.067c0 5.745-4.65 10.419-10.364 10.419H46.509c-5.714 0-10.364-4.674-10.364-10.42V32.29c0-.713-.575-1.291-1.284-1.291h-.771V8.868c0-2.325 1.883-4.218 4.197-4.218h2.826v.775c0 .713.575 1.291 1.285 1.291h3.426c1.842 0 3.34-1.506 3.34-3.358S47.667 0 45.825 0h-3.426c-.71 0-1.285.578-1.285 1.292v.775h-2.826c-3.731 0-6.767 3.051-6.767 6.802v22.129h-.77c-.71 0-1.286.578-1.286 1.292v2.066c0 9.448 7.647 17.135 17.045 17.135h4.883v6.286c0 .713.575 1.291 1.284 1.291h.771v6.975c0 10.683-8.645 19.374-19.272 19.374h-2.74c-10.627 0-19.272-8.691-19.272-19.374V55.768c0-.714-.575-1.292-1.285-1.292s-1.285.578-1.285 1.292v10.275C9.593 78.15 19.391 88 31.435 88h2.74c12.044 0 21.842-9.85 21.842-21.957v-6.975h.771c.71 0 1.285-.578 1.285-1.291V51.49h4.882C72.353 51.491 80 43.804 80 34.356V32.29c0-.714-.576-1.292-1.285-1.292zM65.78 4.133h-2.14a.774.774 0 01-.77-.775c0-.427.345-.775.77-.775h2.141v1.55zm-22.098-1.55h2.141c.425 0 .771.348.771.775a.774.774 0 01-.77.775h-2.142v-1.55zM77.43 34.356c0 8.024-6.493 14.552-14.475 14.552h-6.167c-.71 0-1.285.578-1.285 1.291v6.286h-1.542V50.2c0-.714-.575-1.292-1.285-1.292H46.51c-7.982 0-14.476-6.528-14.476-14.552v-.775h1.542v.775c0 7.17 5.802 13.002 12.934 13.002h16.445c7.132 0 12.934-5.832 12.934-13.002v-.775h1.541v.775z" fill="#fff"/><path d="M54.732 20.665c-5.809 0-10.535 4.752-10.535 10.591 0 5.338 3.938 8.525 10.535 8.525 6.597 0 10.535-3.187 10.535-8.525 0-5.84-4.726-10.59-10.535-10.59zm0 16.533c-2.975 0-7.966-.772-7.966-5.942 0-4.415 3.574-8.008 7.966-8.008s7.966 3.593 7.966 8.008c0 5.17-4.991 5.942-7.966 5.942zm-5.139-26.865c-2.626 0-4.368 3.265-4.368 5.424 0 2.422 1.96 4.392 4.368 4.392 2.409 0 4.368-1.97 4.368-4.392 0-2.16-1.742-5.424-4.368-5.424zm0 7.233a1.806 1.806 0 01-1.799-1.809c0-1.221 1.026-2.841 1.799-2.841.773 0 1.799 1.62 1.799 2.841 0 .997-.807 1.809-1.799 1.809zm10.278-7.233c-2.626 0-4.368 3.265-4.368 5.424 0 2.422 1.96 4.392 4.368 4.392 2.409 0 4.369-1.97 4.369-4.392 0-2.16-1.743-5.424-4.369-5.424zm0 7.233a1.806 1.806 0 01-1.799-1.809c0-1.221 1.026-2.841 1.8-2.841.773 0 1.798 1.62 1.798 2.841 0 .997-.807 1.809-1.799 1.809zm8.223-1.034c-2.626 0-4.368 3.265-4.368 5.425 0 2.422 1.96 4.391 4.368 4.391 2.409 0 4.368-1.97 4.368-4.391 0-2.16-1.742-5.425-4.368-5.425zm0 7.233a1.806 1.806 0 01-1.799-1.808c0-1.222 1.026-2.842 1.799-2.842.773 0 1.799 1.62 1.799 2.842 0 .997-.807 1.808-1.8 1.808zM41.37 16.532c-2.626 0-4.368 3.265-4.368 5.425 0 2.422 1.96 4.391 4.368 4.391 2.41 0 4.369-1.97 4.369-4.391 0-2.16-1.743-5.425-4.369-5.425zm0 7.233a1.806 1.806 0 01-1.798-1.808c0-1.222 1.025-2.842 1.798-2.842.774 0 1.8 1.62 1.8 2.842a1.807 1.807 0 01-1.8 1.808z" fill="#fff"/><path d="M10.878 19.288C4.88 19.288 0 24.193 0 30.223c0 5.593 4.199 10.215 9.593 10.857v8.43c0 .714.575 1.292 1.285 1.292s1.285-.578 1.285-1.291V41.08c5.394-.642 9.593-5.264 9.593-10.857 0-6.03-4.88-10.935-10.878-10.935zm0 19.287c-4.581 0-8.308-3.747-8.308-8.352s3.727-8.352 8.308-8.352c4.581 0 8.308 3.747 8.308 8.352s-3.727 8.352-8.308 8.352z" mask="url(#a)"/><path d="M10.878 24.799c-2.976 0-5.396 2.433-5.396 5.424 0 2.991 2.42 5.425 5.396 5.425 2.975 0 5.396-2.434 5.396-5.425 0-2.99-2.42-5.424-5.396-5.424zm0 8.266a2.837 2.837 0 01-2.827-2.842 2.837 2.837 0 012.827-2.841 2.837 2.837 0 012.826 2.841 2.837 2.837 0 01-2.826 2.842zm67.837-2.067h-.771V8.868c0-3.75-3.036-6.801-6.767-6.801h-2.826v-.775A1.289 1.289 0 0067.066 0H63.64c-1.842 0-3.34 1.506-3.34 3.358s1.498 3.358 3.34 3.358h3.426c.71 0 1.285-.578 1.285-1.291V4.65h2.826c2.315 0 4.197 1.892 4.197 4.219v22.129h-.77c-.71 0-1.285.578-1.285 1.291v2.067c0 5.745-4.65 10.419-10.364 10.419H46.509c-5.714 0-10.364-4.674-10.364-10.42V32.29c0-.713-.575-1.291-1.284-1.291h-.771V8.868c0-2.325 1.883-4.218 4.197-4.218h2.826v.775c0 .713.575 1.291 1.285 1.291h3.426c1.842 0 3.34-1.506 3.34-3.358S47.667 0 45.825 0h-3.426c-.71 0-1.285.578-1.285 1.292v.775h-2.826c-3.731 0-6.767 3.051-6.767 6.802v22.129h-.77c-.71 0-1.286.578-1.286 1.292v2.066c0 9.448 7.647 17.135 17.045 17.135h4.883v6.286c0 .713.575 1.291 1.284 1.291h.771v6.975c0 10.683-8.645 19.374-19.272 19.374h-2.74c-10.627 0-19.272-8.691-19.272-19.374V55.768c0-.714-.575-1.292-1.285-1.292s-1.285.578-1.285 1.292v10.275C9.593 78.15 19.391 88 31.435 88h2.74c12.044 0 21.842-9.85 21.842-21.957v-6.975h.771c.71 0 1.285-.578 1.285-1.291V51.49h4.882C72.353 51.491 80 43.804 80 34.356V32.29c0-.714-.576-1.292-1.285-1.292zM65.78 4.133h-2.14a.774.774 0 01-.77-.775c0-.427.345-.775.77-.775h2.141v1.55zm-22.098-1.55h2.141c.425 0 .771.348.771.775a.774.774 0 01-.77.775h-2.142v-1.55zM77.43 34.356c0 8.024-6.493 14.552-14.475 14.552h-6.167c-.71 0-1.285.578-1.285 1.291v6.286h-1.542V50.2c0-.714-.575-1.292-1.285-1.292H46.51c-7.982 0-14.476-6.528-14.476-14.552v-.775h1.542v.775c0 7.17 5.802 13.002 12.934 13.002h16.445c7.132 0 12.934-5.832 12.934-13.002v-.775h1.541v.775z" mask="url(#a)"/><path d="M54.732 20.665c-5.809 0-10.535 4.752-10.535 10.591 0 5.338 3.938 8.525 10.535 8.525 6.597 0 10.535-3.187 10.535-8.525 0-5.84-4.726-10.59-10.535-10.59zm0 16.533c-2.975 0-7.966-.772-7.966-5.942 0-4.415 3.574-8.008 7.966-8.008s7.966 3.593 7.966 8.008c0 5.17-4.991 5.942-7.966 5.942zm-5.139-26.865c-2.626 0-4.368 3.265-4.368 5.424 0 2.422 1.96 4.392 4.368 4.392 2.409 0 4.368-1.97 4.368-4.392 0-2.16-1.742-5.424-4.368-5.424zm0 7.233a1.806 1.806 0 01-1.799-1.809c0-1.221 1.026-2.841 1.799-2.841.773 0 1.799 1.62 1.799 2.841 0 .997-.807 1.809-1.799 1.809zm10.278-7.233c-2.626 0-4.368 3.265-4.368 5.424 0 2.422 1.96 4.392 4.368 4.392 2.409 0 4.369-1.97 4.369-4.392 0-2.16-1.743-5.424-4.369-5.424zm0 7.233a1.806 1.806 0 01-1.799-1.809c0-1.221 1.026-2.841 1.8-2.841.773 0 1.798 1.62 1.798 2.841 0 .997-.807 1.809-1.799 1.809zm8.223-1.034c-2.626 0-4.368 3.265-4.368 5.425 0 2.422 1.96 4.391 4.368 4.391 2.409 0 4.368-1.97 4.368-4.391 0-2.16-1.742-5.425-4.368-5.425zm0 7.233a1.806 1.806 0 01-1.799-1.808c0-1.222 1.026-2.842 1.799-2.842.773 0 1.799 1.62 1.799 2.842 0 .997-.807 1.808-1.8 1.808zM41.37 16.532c-2.626 0-4.368 3.265-4.368 5.425 0 2.422 1.96 4.391 4.368 4.391 2.41 0 4.369-1.97 4.369-4.391 0-2.16-1.743-5.425-4.369-5.425zm0 7.233a1.806 1.806 0 01-1.798-1.808c0-1.222 1.025-2.842 1.798-2.842.774 0 1.8 1.62 1.8 2.842a1.807 1.807 0 01-1.8 1.808z" mask="url(#a)"/></symbol><symbol id="icon-services"><mask id="a" fill="#fff"><path d="M13.903 23.452C6.571 23.452.607 29.417.607 36.748c0 6.8 5.132 12.421 11.726 13.2V60.2a1.57 1.57 0 003.14 0V49.95c6.595-.78 11.727-6.4 11.727-13.2 0-7.332-5.965-13.297-13.297-13.297zm0 23.452c-5.6 0-10.155-4.556-10.155-10.156 0-5.6 4.555-10.155 10.155-10.155S24.06 31.149 24.06 36.748c0 5.6-4.556 10.156-10.156 10.156z"/><path d="M13.903 30.153a6.604 6.604 0 00-6.596 6.596 6.604 6.604 0 006.596 6.596 6.604 6.604 0 006.596-6.596 6.604 6.604 0 00-6.596-6.596zm0 10.05a3.459 3.459 0 01-3.455-3.454 3.459 3.459 0 013.455-3.455 3.459 3.459 0 013.455 3.455 3.459 3.459 0 01-3.455 3.455zm82.92-2.513h-.942V10.785c0-4.56-3.71-8.271-8.271-8.271h-3.455V1.57A1.57 1.57 0 0082.585 0h-4.189a4.088 4.088 0 00-4.083 4.083 4.088 4.088 0 004.083 4.083h4.188a1.57 1.57 0 001.57-1.57v-.943h3.456a5.136 5.136 0 015.13 5.13V37.69h-.942a1.57 1.57 0 00-1.571 1.571v2.513c0 6.985-5.683 12.668-12.668 12.668H57.457c-6.985 0-12.668-5.683-12.668-12.668V39.26a1.57 1.57 0 00-1.57-1.57h-.943V10.784a5.136 5.136 0 015.13-5.13h3.455v.942c0 .867.703 1.57 1.57 1.57h4.188a4.088 4.088 0 004.084-4.083A4.088 4.088 0 0056.618 0H52.43a1.57 1.57 0 00-1.57 1.57v.943h-3.455c-4.56 0-8.27 3.71-8.27 8.27v26.908h-.943a1.57 1.57 0 00-1.57 1.57v2.513c0 11.488 9.346 20.835 20.834 20.835h5.968v7.642c0 .868.703 1.57 1.57 1.57h.942v8.481c0 12.99-10.567 23.557-23.556 23.557h-3.35c-12.99 0-23.557-10.567-23.557-23.557V67.808a1.57 1.57 0 00-3.141 0v12.494C12.333 95.023 24.309 107 39.03 107h3.35c14.721 0 26.698-11.977 26.698-26.698v-8.48h.942a1.57 1.57 0 001.57-1.57v-7.643h5.968c11.488 0 20.835-9.347 20.835-20.835V39.26c0-.867-.704-1.57-1.571-1.57zM81.013 5.026h-2.617a.943.943 0 010-1.884h2.618v1.884zm-27.01-1.885h2.617a.943.943 0 010 1.884h-2.617V3.141zm41.25 38.633c0 9.756-7.937 17.694-17.693 17.694h-7.54a1.57 1.57 0 00-1.57 1.57v7.643h-1.885v-7.643a1.57 1.57 0 00-1.57-1.57h-7.539c-9.756 0-17.694-7.938-17.694-17.694v-.942h1.885v.942c0 8.717 7.092 15.81 15.81 15.81h20.101c8.718 0 15.81-7.093 15.81-15.81v-.942h1.884v.942z"/><path d="M67.508 25.127c-7.1 0-12.878 5.777-12.878 12.878 0 6.49 4.814 10.365 12.878 10.365s12.877-3.875 12.877-10.365c0-7.1-5.776-12.878-12.877-12.878zm0 20.102c-3.636 0-9.737-.939-9.737-7.224 0-5.369 4.368-9.737 9.737-9.737s9.737 4.368 9.737 9.737c0 6.285-6.1 7.224-9.737 7.224zm-6.282-32.665c-3.21 0-5.34 3.97-5.34 6.596a5.345 5.345 0 005.34 5.34 5.345 5.345 0 005.34-5.34c0-2.626-2.13-6.596-5.34-6.596zm0 8.794a2.201 2.201 0 01-2.199-2.198c0-1.486 1.254-3.455 2.2-3.455.944 0 2.198 1.97 2.198 3.455a2.202 2.202 0 01-2.199 2.198zm12.564-8.794c-3.21 0-5.34 3.97-5.34 6.596a5.345 5.345 0 005.34 5.34 5.345 5.345 0 005.34-5.34c0-2.626-2.13-6.596-5.34-6.596zm0 8.794a2.201 2.201 0 01-2.2-2.198c0-1.486 1.254-3.455 2.2-3.455.945 0 2.198 1.97 2.198 3.455a2.201 2.201 0 01-2.198 2.198zm10.05-1.256c-3.21 0-5.339 3.97-5.339 6.596a5.345 5.345 0 005.34 5.34 5.345 5.345 0 005.34-5.34c0-2.626-2.13-6.596-5.34-6.596zm0 8.794a2.201 2.201 0 01-2.198-2.198c0-1.486 1.253-3.455 2.199-3.455.945 0 2.198 1.97 2.198 3.455a2.201 2.201 0 01-2.198 2.198zm-32.665-8.794c-3.21 0-5.34 3.97-5.34 6.596a5.345 5.345 0 005.34 5.34 5.345 5.345 0 005.34-5.34c0-2.626-2.13-6.596-5.34-6.596zm0 8.794a2.201 2.201 0 01-2.198-2.198c0-1.486 1.253-3.455 2.198-3.455.946 0 2.199 1.97 2.199 3.455a2.201 2.201 0 01-2.199 2.198z"/></mask><path d="M13.903 23.452C6.571 23.452.607 29.417.607 36.748c0 6.8 5.132 12.421 11.726 13.2V60.2a1.57 1.57 0 003.14 0V49.95c6.595-.78 11.727-6.4 11.727-13.2 0-7.332-5.965-13.297-13.297-13.297zm0 23.452c-5.6 0-10.155-4.556-10.155-10.156 0-5.6 4.555-10.155 10.155-10.155S24.06 31.149 24.06 36.748c0 5.6-4.556 10.156-10.156 10.156z" fill="#A07B50"/><path d="M13.903 30.153a6.604 6.604 0 00-6.596 6.596 6.604 6.604 0 006.596 6.596 6.604 6.604 0 006.596-6.596 6.604 6.604 0 00-6.596-6.596zm0 10.05a3.459 3.459 0 01-3.455-3.454 3.459 3.459 0 013.455-3.455 3.459 3.459 0 013.455 3.455 3.459 3.459 0 01-3.455 3.455zm82.92-2.513h-.942V10.785c0-4.56-3.71-8.271-8.271-8.271h-3.455V1.57A1.57 1.57 0 0082.585 0h-4.189a4.088 4.088 0 00-4.083 4.083 4.088 4.088 0 004.083 4.083h4.188a1.57 1.57 0 001.57-1.57v-.943h3.456a5.136 5.136 0 015.13 5.13V37.69h-.942a1.57 1.57 0 00-1.571 1.571v2.513c0 6.985-5.683 12.668-12.668 12.668H57.457c-6.985 0-12.668-5.683-12.668-12.668V39.26a1.57 1.57 0 00-1.57-1.57h-.943V10.784a5.136 5.136 0 015.13-5.13h3.455v.942c0 .867.703 1.57 1.57 1.57h4.188a4.088 4.088 0 004.084-4.083A4.088 4.088 0 0056.618 0H52.43a1.57 1.57 0 00-1.57 1.57v.943h-3.455c-4.56 0-8.27 3.71-8.27 8.27v26.908h-.943a1.57 1.57 0 00-1.57 1.57v2.513c0 11.488 9.346 20.835 20.834 20.835h5.968v7.642c0 .868.703 1.57 1.57 1.57h.942v8.481c0 12.99-10.567 23.557-23.556 23.557h-3.35c-12.99 0-23.557-10.567-23.557-23.557V67.808a1.57 1.57 0 00-3.141 0v12.494C12.333 95.023 24.309 107 39.03 107h3.35c14.721 0 26.698-11.977 26.698-26.698v-8.48h.942a1.57 1.57 0 001.57-1.57v-7.643h5.968c11.488 0 20.835-9.347 20.835-20.835V39.26c0-.867-.704-1.57-1.571-1.57zM81.013 5.026h-2.617a.943.943 0 010-1.884h2.618v1.884zm-27.01-1.885h2.617a.943.943 0 010 1.884h-2.617V3.141zm41.25 38.633c0 9.756-7.937 17.694-17.693 17.694h-7.54a1.57 1.57 0 00-1.57 1.57v7.643h-1.885v-7.643a1.57 1.57 0 00-1.57-1.57h-7.539c-9.756 0-17.694-7.938-17.694-17.694v-.942h1.885v.942c0 8.717 7.092 15.81 15.81 15.81h20.101c8.718 0 15.81-7.093 15.81-15.81v-.942h1.884v.942z" fill="#A07B50"/><path d="M67.508 25.127c-7.1 0-12.878 5.777-12.878 12.878 0 6.49 4.814 10.365 12.878 10.365s12.877-3.875 12.877-10.365c0-7.1-5.776-12.878-12.877-12.878zm0 20.102c-3.636 0-9.737-.939-9.737-7.224 0-5.369 4.368-9.737 9.737-9.737s9.737 4.368 9.737 9.737c0 6.285-6.1 7.224-9.737 7.224zm-6.282-32.665c-3.21 0-5.34 3.97-5.34 6.596a5.345 5.345 0 005.34 5.34 5.345 5.345 0 005.34-5.34c0-2.626-2.13-6.596-5.34-6.596zm0 8.794a2.201 2.201 0 01-2.199-2.198c0-1.486 1.254-3.455 2.2-3.455.944 0 2.198 1.97 2.198 3.455a2.202 2.202 0 01-2.199 2.198zm12.564-8.794c-3.21 0-5.34 3.97-5.34 6.596a5.345 5.345 0 005.34 5.34 5.345 5.345 0 005.34-5.34c0-2.626-2.13-6.596-5.34-6.596zm0 8.794a2.201 2.201 0 01-2.2-2.198c0-1.486 1.254-3.455 2.2-3.455.945 0 2.198 1.97 2.198 3.455a2.201 2.201 0 01-2.198 2.198zm10.05-1.256c-3.21 0-5.339 3.97-5.339 6.596a5.345 5.345 0 005.34 5.34 5.345 5.345 0 005.34-5.34c0-2.626-2.13-6.596-5.34-6.596zm0 8.794a2.201 2.201 0 01-2.198-2.198c0-1.486 1.253-3.455 2.199-3.455.945 0 2.198 1.97 2.198 3.455a2.201 2.201 0 01-2.198 2.198zm-32.665-8.794c-3.21 0-5.34 3.97-5.34 6.596a5.345 5.345 0 005.34 5.34 5.345 5.345 0 005.34-5.34c0-2.626-2.13-6.596-5.34-6.596zm0 8.794a2.201 2.201 0 01-2.198-2.198c0-1.486 1.253-3.455 2.198-3.455.946 0 2.199 1.97 2.199 3.455a2.201 2.201 0 01-2.199 2.198z" fill="#A07B50"/><path d="M13.903 23.452C6.571 23.452.607 29.417.607 36.748c0 6.8 5.132 12.421 11.726 13.2V60.2a1.57 1.57 0 003.14 0V49.95c6.595-.78 11.727-6.4 11.727-13.2 0-7.332-5.965-13.297-13.297-13.297zm0 23.452c-5.6 0-10.155-4.556-10.155-10.156 0-5.6 4.555-10.155 10.155-10.155S24.06 31.149 24.06 36.748c0 5.6-4.556 10.156-10.156 10.156z" mask="url(#a)"/><path d="M13.903 30.153a6.604 6.604 0 00-6.596 6.596 6.604 6.604 0 006.596 6.596 6.604 6.604 0 006.596-6.596 6.604 6.604 0 00-6.596-6.596zm0 10.05a3.459 3.459 0 01-3.455-3.454 3.459 3.459 0 013.455-3.455 3.459 3.459 0 013.455 3.455 3.459 3.459 0 01-3.455 3.455zm82.92-2.513h-.942V10.785c0-4.56-3.71-8.271-8.271-8.271h-3.455V1.57A1.57 1.57 0 0082.585 0h-4.189a4.088 4.088 0 00-4.083 4.083 4.088 4.088 0 004.083 4.083h4.188a1.57 1.57 0 001.57-1.57v-.943h3.456a5.136 5.136 0 015.13 5.13V37.69h-.942a1.57 1.57 0 00-1.571 1.571v2.513c0 6.985-5.683 12.668-12.668 12.668H57.457c-6.985 0-12.668-5.683-12.668-12.668V39.26a1.57 1.57 0 00-1.57-1.57h-.943V10.784a5.136 5.136 0 015.13-5.13h3.455v.942c0 .867.703 1.57 1.57 1.57h4.188a4.088 4.088 0 004.084-4.083A4.088 4.088 0 0056.618 0H52.43a1.57 1.57 0 00-1.57 1.57v.943h-3.455c-4.56 0-8.27 3.71-8.27 8.27v26.908h-.943a1.57 1.57 0 00-1.57 1.57v2.513c0 11.488 9.346 20.835 20.834 20.835h5.968v7.642c0 .868.703 1.57 1.57 1.57h.942v8.481c0 12.99-10.567 23.557-23.556 23.557h-3.35c-12.99 0-23.557-10.567-23.557-23.557V67.808a1.57 1.57 0 00-3.141 0v12.494C12.333 95.023 24.309 107 39.03 107h3.35c14.721 0 26.698-11.977 26.698-26.698v-8.48h.942a1.57 1.57 0 001.57-1.57v-7.643h5.968c11.488 0 20.835-9.347 20.835-20.835V39.26c0-.867-.704-1.57-1.571-1.57zM81.013 5.026h-2.617a.943.943 0 010-1.884h2.618v1.884zm-27.01-1.885h2.617a.943.943 0 010 1.884h-2.617V3.141zm41.25 38.633c0 9.756-7.937 17.694-17.693 17.694h-7.54a1.57 1.57 0 00-1.57 1.57v7.643h-1.885v-7.643a1.57 1.57 0 00-1.57-1.57h-7.539c-9.756 0-17.694-7.938-17.694-17.694v-.942h1.885v.942c0 8.717 7.092 15.81 15.81 15.81h20.101c8.718 0 15.81-7.093 15.81-15.81v-.942h1.884v.942z" mask="url(#a)"/><path d="M67.508 25.127c-7.1 0-12.878 5.777-12.878 12.878 0 6.49 4.814 10.365 12.878 10.365s12.877-3.875 12.877-10.365c0-7.1-5.776-12.878-12.877-12.878zm0 20.102c-3.636 0-9.737-.939-9.737-7.224 0-5.369 4.368-9.737 9.737-9.737s9.737 4.368 9.737 9.737c0 6.285-6.1 7.224-9.737 7.224zm-6.282-32.665c-3.21 0-5.34 3.97-5.34 6.596a5.345 5.345 0 005.34 5.34 5.345 5.345 0 005.34-5.34c0-2.626-2.13-6.596-5.34-6.596zm0 8.794a2.201 2.201 0 01-2.199-2.198c0-1.486 1.254-3.455 2.2-3.455.944 0 2.198 1.97 2.198 3.455a2.202 2.202 0 01-2.199 2.198zm12.564-8.794c-3.21 0-5.34 3.97-5.34 6.596a5.345 5.345 0 005.34 5.34 5.345 5.345 0 005.34-5.34c0-2.626-2.13-6.596-5.34-6.596zm0 8.794a2.201 2.201 0 01-2.2-2.198c0-1.486 1.254-3.455 2.2-3.455.945 0 2.198 1.97 2.198 3.455a2.201 2.201 0 01-2.198 2.198zm10.05-1.256c-3.21 0-5.339 3.97-5.339 6.596a5.345 5.345 0 005.34 5.34 5.345 5.345 0 005.34-5.34c0-2.626-2.13-6.596-5.34-6.596zm0 8.794a2.201 2.201 0 01-2.198-2.198c0-1.486 1.253-3.455 2.199-3.455.945 0 2.198 1.97 2.198 3.455a2.201 2.201 0 01-2.198 2.198zm-32.665-8.794c-3.21 0-5.34 3.97-5.34 6.596a5.345 5.345 0 005.34 5.34 5.345 5.345 0 005.34-5.34c0-2.626-2.13-6.596-5.34-6.596zm0 8.794a2.201 2.201 0 01-2.198-2.198c0-1.486 1.253-3.455 2.198-3.455.946 0 2.199 1.97 2.199 3.455a2.201 2.201 0 01-2.199 2.198z" mask="url(#a)"/></symbol><symbol id="icon-twitter-footer"><path d="M18.727 6.697c1.127-.093 1.891-.605 2.186-1.3-.407.25-1.67.521-2.366.262a8.722 8.722 0 00-.11-.46c-.531-1.95-2.35-3.52-4.255-3.331.154-.062.31-.12.467-.172.21-.075 1.44-.276 1.246-.71-.163-.382-1.667.289-1.95.376.374-.14.992-.382 1.058-.811a2.985 2.985 0 00-1.569.743c.157-.17.276-.375.302-.596-1.527.975-2.42 2.942-3.141 4.85-.567-.55-1.07-.982-1.52-1.223C7.811 3.647 6.299 2.94 3.926 2.06c-.073.785.389 1.83 1.717 2.523-.288-.038-.814.048-1.235.149.171.899.731 1.64 2.247 1.998-.693.046-1.05.204-1.375.544.315.625 1.085 1.361 2.47 1.21-1.54.664-.627 1.893.626 1.71-2.138 2.208-5.508 2.045-7.443.199 5.052 6.885 16.036 4.072 17.673-2.56 1.226.01 1.947-.425 2.394-.905-.706.12-1.73-.004-2.273-.23z"/></symbol><symbol id="icon-twitter-reviews"><path d="M12.951 4.318c.792-.066 1.33-.426 1.536-.914-.286.175-1.172.367-1.662.184a6.075 6.075 0 00-.077-.323c-.373-1.37-1.65-2.473-2.989-2.34.108-.043.218-.084.328-.12.147-.054 1.011-.194.875-.5-.114-.268-1.17.204-1.37.265.263-.099.697-.268.744-.57a2.096 2.096 0 00-1.102.522.758.758 0 00.211-.419C8.373.788 7.746 2.17 7.24 3.51c-.398-.386-.751-.69-1.068-.858-.888-.477-1.95-.974-3.616-1.592-.052.551.272 1.284 1.206 1.772-.203-.027-.572.033-.868.104.12.632.514 1.153 1.579 1.404-.487.032-.739.143-.966.382.221.44.762.956 1.735.85-1.082.466-.441 1.33.44 1.201-1.502 1.551-3.87 1.437-5.23.14 3.55 4.837 11.266 2.86 12.416-1.798.861.007 1.368-.299 1.682-.636-.497.084-1.216-.003-1.598-.161z"/></symbol><symbol id="icon-twitter"><path d="M13.376 4.62c.847-.07 1.422-.455 1.643-.978-.306.188-1.254.393-1.778.198a6.462 6.462 0 00-.083-.346C12.758 2.028 11.392.847 9.96.99c.116-.047.233-.09.35-.13.158-.056 1.083-.206.937-.533C11.125.04 9.994.544 9.782.61c.28-.106.745-.287.795-.61-.43.059-.853.262-1.18.558A.81.81 0 009.625.11c-1.148.734-1.818 2.212-2.36 3.646-.427-.413-.805-.738-1.143-.919-.95-.51-2.087-1.041-3.87-1.703-.055.59.291 1.375 1.29 1.897-.216-.03-.612.035-.929.111.13.676.55 1.233 1.69 1.502-.521.035-.79.153-1.034.409.237.47.816 1.023 1.857.91-1.158.499-.472 1.423.47 1.285-1.607 1.66-4.14 1.538-5.595.15 3.798 5.175 12.055 3.06 13.285-1.925.922.008 1.464-.32 1.8-.68-.531.09-1.301-.003-1.71-.173z"/></symbol><symbol id="icon-vk-footer"><path d="M21.328 11.085c-.056-.095-.406-.854-2.088-2.416-1.762-1.635-1.525-1.37.596-4.197 1.293-1.723 1.81-2.774 1.647-3.224C21.33.82 20.38.933 20.38.933L17.22.95s-.234-.031-.409.072c-.17.103-.278.34-.278.34s-.501 1.333-1.17 2.466c-1.407 2.39-1.971 2.517-2.201 2.369-.535-.346-.401-1.391-.401-2.133 0-2.317.351-3.283-.685-3.533-.344-.083-.597-.138-1.476-.147C9.47.373 8.515.389 7.975.653c-.36.176-.638.569-.468.591.21.028.682.128.933.47.325.44.313 1.431.313 1.431s.187 2.728-.435 3.067c-.427.233-1.012-.242-2.267-2.412-.643-1.111-1.13-2.34-1.13-2.34s-.093-.229-.26-.351a1.31 1.31 0 00-.486-.196L1.17.931s-.451.014-.617.21c-.147.174-.012.534-.012.534s2.353 5.505 5.017 8.28C8 12.498 10.775 12.33 10.775 12.33h1.257s.38-.042.573-.25c.179-.193.172-.553.172-.553s-.025-1.686.759-1.935c.771-.244 1.762 1.63 2.813 2.352.794.545 1.397.426 1.397.426l2.81-.04s1.469-.09.772-1.246z"/></symbol><symbol id="icon-vk-reviews"><path d="M12.884 7.136c-.035-.064-.251-.57-1.291-1.611-1.089-1.09-.943-.913.369-2.799C12.76 1.578 13.08.877 12.98.578c-.095-.286-.683-.21-.683-.21L10.345.38s-.145-.021-.253.048a.59.59 0 00-.172.226s-.31.888-.722 1.644c-.87 1.594-1.22 1.678-1.361 1.58-.331-.231-.248-.928-.248-1.422C7.588.91 7.805.266 7.165.1c-.213-.055-.37-.092-.913-.098C5.555-.006 4.964.004 4.63.18c-.223.117-.394.38-.29.394.13.018.423.085.578.313.2.293.193.954.193.954s.116 1.819-.269 2.045c-.264.155-.625-.161-1.401-1.608-.398-.74-.698-1.56-.698-1.56S2.685.566 2.582.485c-.125-.1-.301-.13-.301-.13L.424.365s-.28.01-.382.14C-.048.622.035.862.035.862s1.455 3.67 3.1 5.52c1.511 1.696 3.226 1.584 3.226 1.584h.777s.235-.028.354-.167c.11-.128.106-.368.106-.368s-.015-1.125.47-1.29c.476-.163 1.089 1.087 1.738 1.568.49.363.864.284.864.284l1.736-.027s.909-.06.478-.83z"/></symbol><symbol id="icon-vk"><path d="M12.884 7.136c-.035-.064-.251-.57-1.291-1.611-1.089-1.09-.943-.913.369-2.799C12.76 1.578 13.08.877 12.98.578c-.095-.286-.683-.21-.683-.21L10.345.38s-.145-.021-.253.048a.59.59 0 00-.172.226s-.31.888-.722 1.644c-.87 1.594-1.22 1.678-1.361 1.58-.331-.231-.248-.928-.248-1.422C7.588.91 7.805.266 7.165.1c-.213-.055-.37-.092-.913-.098C5.555-.006 4.964.004 4.63.18c-.222.117-.394.38-.29.394.13.018.423.085.578.313.2.293.193.954.193.954s.116 1.819-.269 2.045c-.264.155-.625-.161-1.401-1.608-.398-.74-.698-1.56-.698-1.56S2.685.566 2.582.485c-.125-.1-.301-.13-.301-.13L.424.365s-.28.01-.382.14C-.048.622.035.862.035.862s1.455 3.67 3.1 5.52c1.511 1.696 3.226 1.584 3.226 1.584h.777s.235-.028.354-.167c.11-.128.106-.368.106-.368s-.015-1.125.47-1.29c.476-.163 1.089 1.087 1.738 1.568.49.363.864.284.864.284l1.736-.027s.909-.06.478-.83z"/></symbol></svg>